<svg width="40" height="40" viewBox="0 0 40 40" fill="none" xmlns="http://www.w3.org/2000/svg">
<path d="M15.0432 21.2997C7.23283 24.2819 6.93698 29.8793 7.76535 32.3052C6.81866 31.8319 5.20924 30.8851 3.50517 29.4651C1.37507 27.69 2.44012 20.7672 8.12037 15.7969C13.8006 10.8267 20.0134 8.87414 25.3386 7.80909C30.6639 6.74404 34.7466 6.92155 35.4566 9.22918C37.2317 16.3295 24.8061 17.5721 15.0432 21.2997Z" fill="#6200EE"/>
<path d="M24.6516 6.3908C4.41565 11.361 2.81812 20.0589 2.46306 20.769C-0.377064 14.0947 1.26635 11.006 4.41565 9.23095C12.226 4.82875 21.4564 5.56242 24.6516 6.3908Z" fill="#F5222D"/>
<path d="M32.6173 31.4195C33.4694 25.7393 27.0554 21.9525 23.7419 20.7691C26.4046 19.704 32.6173 19.8815 35.4575 24.4967C38.7542 29.8537 34.8066 31.4195 32.6173 31.4195Z" fill="#389E0D"/>
<path d="M30.1293 17.7671C34.922 16.8642 37.8686 12.7105 37.5846 10.2964C39.123 12.3081 40.7798 18.1067 30.1293 17.7671Z" fill="#CF1322"/>
<path d="M32.0822 19.2714C33.5013 19.5796 36.3421 21.6233 36.6974 23.5316C38.5908 21.8157 40.3186 18.5614 32.0822 19.2714Z" fill="#23DC0B"/>
<path d="M30.1315 5.69568C25.3388 3.72767 14.0546 3.70061 11.1381 5.34067C12.5582 3.44724 16.6409 -0.268617 21.6111 0.0153961C26.5813 0.299409 29.3623 3.92059 30.1315 5.69568Z" fill="#FADB14"/>
<path d="M14.4431 36.4744C11.887 37.4684 10.4196 36.0602 10.0054 35.2318C8.76287 40.7346 20.4784 41.2671 21.0109 37.8944C21.5434 34.5218 17.6383 35.2318 14.4431 36.4744Z" fill="#240057"/>
<path d="M28.1596 35.0983C30.8337 35.7075 32.0792 34.0996 32.3676 33.2196C34.4023 38.4812 22.8909 40.7228 21.8704 37.4644C20.85 34.206 24.817 34.3368 28.1596 35.0983Z" fill="#240057"/>
</svg>
