<svg width="50" height="50" viewBox="0 0 50 50" fill="none" xmlns="http://www.w3.org/2000/svg">
<path d="M19.4593 26.4574C10.7014 29.8013 10.3696 36.0778 11.2985 38.7981C10.237 38.2673 8.43231 37.2057 6.5215 35.6133C4.13298 33.6229 5.32724 25.8602 11.6966 20.287C18.066 14.7139 25.0325 12.5244 31.0038 11.3301C36.975 10.1359 41.553 10.3349 42.3492 12.9225C44.3396 20.8842 30.4066 22.2775 19.4593 26.4574Z" fill="#6200EE"/>
<path d="M30.2333 9.73981C7.54243 15.313 5.75109 25.0661 5.35296 25.8623C2.16828 18.3783 4.01106 14.9149 7.54243 12.9245C16.3003 7.98826 26.6505 8.81094 30.2333 9.73981Z" fill="#F5222D"/>
<path d="M39.1655 37.8049C40.1209 31.4355 32.9288 27.1893 29.2133 25.8623C32.199 24.668 39.1655 24.8671 42.3502 30.0422C46.0468 36.0491 41.6203 37.8049 39.1655 37.8049Z" fill="#389E0D"/>
<path d="M36.3755 22.4962C41.7497 21.4837 45.0538 16.8261 44.7353 14.1191C46.4604 16.375 48.3181 22.877 36.3755 22.4962Z" fill="#CF1322"/>
<path d="M38.5654 24.183C40.1567 24.5286 43.3421 26.8203 43.7405 28.96C45.8637 27.036 47.801 23.3868 38.5654 24.183Z" fill="#23DC0B"/>
<path d="M36.378 8.96027C31.0039 6.75351 18.3508 6.72316 15.0804 8.56219C16.6728 6.43906 21.2508 2.2724 26.824 2.59087C32.3972 2.90934 35.5155 6.96984 36.378 8.96027Z" fill="#FADB14"/>
<path d="M18.7864 43.473C15.9202 44.5877 14.2748 43.0086 13.8104 42.0797C12.4171 48.25 25.5539 48.8472 26.151 45.0654C26.7482 41.2835 22.3692 42.0797 18.7864 43.473Z" fill="#240057"/>
<path d="M34.167 41.93C37.1655 42.6131 38.562 40.8102 38.8855 39.8234C41.167 45.7233 28.259 48.2368 27.1148 44.5832C25.9705 40.9295 30.4188 41.0761 34.167 41.93Z" fill="#240057"/>
</svg>
