<svg width="35" height="1555" viewBox="0 0 35 1555" fill="none" xmlns="http://www.w3.org/2000/svg">
<path d="M13.1077 13.679C11.9663 14.5345 10.3691 14.9136 8.81999 14.5933C5.74553 13.956 4.14254 11.496 4.08943 8.43293C4.04531 5.94347 5.62543 2.87718 8.02911 1.88613C9.46707 1.29297 11.3348 1.8992 11.9206 3.41641C12.1387 3.98261 12.0954 4.53247 12.0039 5.08641L11.9386 5.4557C11.8912 5.71143 11.843 5.96961 11.816 6.23106C11.7613 6.76131 12.0644 7.09138 12.4476 7.36508L12.6437 7.49744L13.0979 7.7834L13.3152 7.93291C13.83 8.30139 14.3757 8.82592 14.6012 9.76223C14.9975 11.4004 14.2663 12.8097 13.1077 13.679ZM15.5261 16.7486C15.0927 16.7486 14.6771 16.5764 14.3707 16.27C14.0642 15.9635 13.8921 15.5479 13.8921 15.1145C13.8921 14.6812 14.0642 14.2655 14.3707 13.9591C14.6771 13.6527 15.0927 13.4805 15.5261 13.4805C15.9595 13.4805 16.3751 13.6527 16.6816 13.9591C16.988 14.2655 17.1602 14.6812 17.1602 15.1145C17.1602 15.5479 16.988 15.9635 16.6816 16.27C16.3751 16.5764 15.9595 16.7486 15.5261 16.7486ZM4.49631 15.9316C4.27962 15.9316 4.0718 15.8455 3.91858 15.6923C3.76536 15.539 3.67928 15.3312 3.67928 15.1145C3.67928 14.8979 3.76536 14.69 3.91858 14.5368C4.0718 14.3836 4.27962 14.2975 4.49631 14.2975C4.71299 14.2975 4.92081 14.3836 5.07403 14.5368C5.22725 14.69 5.31333 14.8979 5.31333 15.1145C5.31333 15.3312 5.22725 15.539 5.07403 15.6923C4.92081 15.8455 4.71299 15.9316 4.49631 15.9316ZM11.8495 17.9741C11.6886 17.9741 11.5292 17.9424 11.3805 17.8808C11.2318 17.8192 11.0967 17.729 10.9829 17.6152C10.8691 17.5014 10.7789 17.3663 10.7173 17.2176C10.6557 17.0689 10.624 16.9095 10.624 16.7486C10.624 16.5876 10.6557 16.4283 10.7173 16.2796C10.7789 16.1309 10.8691 15.9958 10.9829 15.882C11.0967 15.7682 11.2318 15.6779 11.3805 15.6163C11.5292 15.5548 11.6886 15.5231 11.8495 15.5231C12.1745 15.5231 12.4863 15.6522 12.7161 15.882C12.9459 16.1118 13.075 16.4236 13.075 16.7486C13.075 17.0736 12.9459 17.3853 12.7161 17.6152C12.4863 17.845 12.1745 17.9741 11.8495 17.9741ZM7.7644 17.9741C7.60346 17.9741 7.44409 17.9424 7.29541 17.8808C7.14672 17.8192 7.01161 17.729 6.89781 17.6152C6.78401 17.5014 6.69374 17.3663 6.63215 17.2176C6.57056 17.0689 6.53886 16.9095 6.53886 16.7486C6.53886 16.5876 6.57056 16.4283 6.63215 16.2796C6.69374 16.1309 6.78401 15.9958 6.89781 15.882C7.01161 15.7682 7.14672 15.6779 7.29541 15.6163C7.44409 15.5548 7.60346 15.5231 7.7644 15.5231C8.08943 15.5231 8.40115 15.6522 8.63098 15.882C8.86081 16.1118 8.98993 16.4236 8.98993 16.7486C8.98993 17.0736 8.86081 17.3853 8.63098 17.6152C8.40115 17.845 8.08943 17.9741 7.7644 17.9741Z" fill="#92C6FF"/>
<path d="M13.1077 485.679C11.9663 486.534 10.3691 486.914 8.81999 486.593C5.74553 485.956 4.14254 483.496 4.08943 480.433C4.04531 477.943 5.62543 474.877 8.02911 473.886C9.46707 473.293 11.3348 473.899 11.9206 475.416C12.1387 475.983 12.0954 476.532 12.0039 477.086L11.9386 477.456C11.8912 477.711 11.843 477.97 11.816 478.231C11.7613 478.761 12.0644 479.091 12.4476 479.365L12.6437 479.497L13.0979 479.783L13.3152 479.933C13.83 480.301 14.3757 480.826 14.6012 481.762C14.9975 483.4 14.2663 484.81 13.1077 485.679ZM15.5261 488.749C15.0927 488.749 14.6771 488.576 14.3707 488.27C14.0642 487.964 13.8921 487.548 13.8921 487.115C13.8921 486.681 14.0642 486.266 14.3707 485.959C14.6771 485.653 15.0927 485.48 15.5261 485.48C15.9595 485.48 16.3751 485.653 16.6816 485.959C16.988 486.266 17.1602 486.681 17.1602 487.115C17.1602 487.548 16.988 487.964 16.6816 488.27C16.3751 488.576 15.9595 488.749 15.5261 488.749ZM4.49631 487.932C4.27962 487.932 4.0718 487.845 3.91858 487.692C3.76536 487.539 3.67928 487.331 3.67928 487.115C3.67928 486.898 3.76536 486.69 3.91858 486.537C4.0718 486.384 4.27962 486.298 4.49631 486.298C4.71299 486.298 4.92081 486.384 5.07403 486.537C5.22725 486.69 5.31333 486.898 5.31333 487.115C5.31333 487.331 5.22725 487.539 5.07403 487.692C4.92081 487.845 4.71299 487.932 4.49631 487.932ZM11.8495 489.974C11.6886 489.974 11.5292 489.942 11.3805 489.881C11.2318 489.819 11.0967 489.729 10.9829 489.615C10.8691 489.501 10.7789 489.366 10.7173 489.218C10.6557 489.069 10.624 488.91 10.624 488.749C10.624 488.588 10.6557 488.428 10.7173 488.28C10.7789 488.131 10.8691 487.996 10.9829 487.882C11.0967 487.768 11.2318 487.678 11.3805 487.616C11.5292 487.555 11.6886 487.523 11.8495 487.523C12.1745 487.523 12.4863 487.652 12.7161 487.882C12.9459 488.112 13.075 488.424 13.075 488.749C13.075 489.074 12.9459 489.385 12.7161 489.615C12.4863 489.845 12.1745 489.974 11.8495 489.974ZM7.7644 489.974C7.60346 489.974 7.44409 489.942 7.29541 489.881C7.14672 489.819 7.01161 489.729 6.89781 489.615C6.78401 489.501 6.69374 489.366 6.63215 489.218C6.57056 489.069 6.53886 488.91 6.53886 488.749C6.53886 488.588 6.57056 488.428 6.63215 488.28C6.69374 488.131 6.78401 487.996 6.89781 487.882C7.01161 487.768 7.14672 487.678 7.29541 487.616C7.44409 487.555 7.60346 487.523 7.7644 487.523C8.08943 487.523 8.40115 487.652 8.63098 487.882C8.86081 488.112 8.98993 488.424 8.98993 488.749C8.98993 489.074 8.86081 489.385 8.63098 489.615C8.40115 489.845 8.08943 489.974 7.7644 489.974Z" fill="#92C6FF"/>
<path d="M13.1077 957.679C11.9663 958.534 10.3691 958.913 8.81999 958.593C5.74553 957.956 4.14254 955.495 4.08943 952.432C4.04531 949.943 5.62543 946.877 8.02911 945.886C9.46707 945.292 11.3348 945.899 11.9206 947.416C12.1387 947.982 12.0954 948.532 12.0039 949.086L11.9386 949.455C11.8912 949.711 11.843 949.969 11.816 950.231C11.7613 950.761 12.0644 951.091 12.4476 951.365L12.6437 951.497L13.0979 951.783L13.3152 951.932C13.83 952.301 14.3757 952.825 14.6012 953.762C14.9975 955.4 14.2663 956.809 13.1077 957.679ZM15.5261 960.748C15.0927 960.748 14.6771 960.576 14.3707 960.269C14.0642 959.963 13.8921 959.547 13.8921 959.114C13.8921 958.681 14.0642 958.265 14.3707 957.959C14.6771 957.652 15.0927 957.48 15.5261 957.48C15.9595 957.48 16.3751 957.652 16.6816 957.959C16.988 958.265 17.1602 958.681 17.1602 959.114C17.1602 959.547 16.988 959.963 16.6816 960.269C16.3751 960.576 15.9595 960.748 15.5261 960.748ZM4.49631 959.931C4.27962 959.931 4.0718 959.845 3.91858 959.692C3.76536 959.539 3.67928 959.331 3.67928 959.114C3.67928 958.897 3.76536 958.69 3.91858 958.536C4.0718 958.383 4.27962 958.297 4.49631 958.297C4.71299 958.297 4.92081 958.383 5.07403 958.536C5.22725 958.69 5.31333 958.897 5.31333 959.114C5.31333 959.331 5.22725 959.539 5.07403 959.692C4.92081 959.845 4.71299 959.931 4.49631 959.931ZM11.8495 961.974C11.6886 961.974 11.5292 961.942 11.3805 961.88C11.2318 961.819 11.0967 961.728 10.9829 961.615C10.8691 961.501 10.7789 961.366 10.7173 961.217C10.6557 961.068 10.624 960.909 10.624 960.748C10.624 960.587 10.6557 960.428 10.7173 960.279C10.7789 960.13 10.8691 959.995 10.9829 959.882C11.0967 959.768 11.2318 959.677 11.3805 959.616C11.5292 959.554 11.6886 959.523 11.8495 959.523C12.1745 959.523 12.4863 959.652 12.7161 959.882C12.9459 960.111 13.075 960.423 13.075 960.748C13.075 961.073 12.9459 961.385 12.7161 961.615C12.4863 961.845 12.1745 961.974 11.8495 961.974ZM7.7644 961.974C7.60346 961.974 7.44409 961.942 7.29541 961.88C7.14672 961.819 7.01161 961.728 6.89781 961.615C6.78401 961.501 6.69374 961.366 6.63215 961.217C6.57056 961.068 6.53886 960.909 6.53886 960.748C6.53886 960.587 6.57056 960.428 6.63215 960.279C6.69374 960.13 6.78401 959.995 6.89781 959.882C7.01161 959.768 7.14672 959.677 7.29541 959.616C7.44409 959.554 7.60346 959.523 7.7644 959.523C8.08943 959.523 8.40115 959.652 8.63098 959.882C8.86081 960.111 8.98993 960.423 8.98993 960.748C8.98993 961.073 8.86081 961.385 8.63098 961.615C8.40115 961.845 8.08943 961.974 7.7644 961.974Z" fill="#92C6FF"/>
<path d="M13.1077 1429.68C11.9663 1430.53 10.3691 1430.91 8.81999 1430.59C5.74553 1429.96 4.14254 1427.5 4.08943 1424.43C4.04531 1421.94 5.62543 1418.88 8.02911 1417.89C9.46707 1417.29 11.3348 1417.9 11.9206 1419.42C12.1387 1419.98 12.0954 1420.53 12.0039 1421.09L11.9386 1421.46C11.8912 1421.71 11.843 1421.97 11.816 1422.23C11.7613 1422.76 12.0644 1423.09 12.4476 1423.36L12.6437 1423.5L13.0979 1423.78L13.3152 1423.93C13.83 1424.3 14.3757 1424.83 14.6012 1425.76C14.9975 1427.4 14.2663 1428.81 13.1077 1429.68ZM15.5261 1432.75C15.0927 1432.75 14.6771 1432.58 14.3707 1432.27C14.0642 1431.96 13.8921 1431.55 13.8921 1431.11C13.8921 1430.68 14.0642 1430.27 14.3707 1429.96C14.6771 1429.65 15.0927 1429.48 15.5261 1429.48C15.9595 1429.48 16.3751 1429.65 16.6816 1429.96C16.988 1430.27 17.1602 1430.68 17.1602 1431.11C17.1602 1431.55 16.988 1431.96 16.6816 1432.27C16.3751 1432.58 15.9595 1432.75 15.5261 1432.75ZM4.49631 1431.93C4.27962 1431.93 4.0718 1431.84 3.91858 1431.69C3.76536 1431.54 3.67928 1431.33 3.67928 1431.11C3.67928 1430.9 3.76536 1430.69 3.91858 1430.54C4.0718 1430.38 4.27962 1430.3 4.49631 1430.3C4.71299 1430.3 4.92081 1430.38 5.07403 1430.54C5.22725 1430.69 5.31333 1430.9 5.31333 1431.11C5.31333 1431.33 5.22725 1431.54 5.07403 1431.69C4.92081 1431.84 4.71299 1431.93 4.49631 1431.93ZM11.8495 1433.97C11.6886 1433.97 11.5292 1433.94 11.3805 1433.88C11.2318 1433.82 11.0967 1433.73 10.9829 1433.61C10.8691 1433.5 10.7789 1433.37 10.7173 1433.22C10.6557 1433.07 10.624 1432.91 10.624 1432.75C10.624 1432.59 10.6557 1432.43 10.7173 1432.28C10.7789 1432.13 10.8691 1432 10.9829 1431.88C11.0967 1431.77 11.2318 1431.68 11.3805 1431.62C11.5292 1431.55 11.6886 1431.52 11.8495 1431.52C12.1745 1431.52 12.4863 1431.65 12.7161 1431.88C12.9459 1432.11 13.075 1432.42 13.075 1432.75C13.075 1433.07 12.9459 1433.38 12.7161 1433.61C12.4863 1433.84 12.1745 1433.97 11.8495 1433.97ZM7.7644 1433.97C7.60346 1433.97 7.44409 1433.94 7.29541 1433.88C7.14672 1433.82 7.01161 1433.73 6.89781 1433.61C6.78401 1433.5 6.69374 1433.37 6.63215 1433.22C6.57056 1433.07 6.53886 1432.91 6.53886 1432.75C6.53886 1432.59 6.57056 1432.43 6.63215 1432.28C6.69374 1432.13 6.78401 1432 6.89781 1431.88C7.01161 1431.77 7.14672 1431.68 7.29541 1431.62C7.44409 1431.55 7.60346 1431.52 7.7644 1431.52C8.08943 1431.52 8.40115 1431.65 8.63098 1431.88C8.86081 1432.11 8.98993 1432.42 8.98993 1432.75C8.98993 1433.07 8.86081 1433.38 8.63098 1433.61C8.40115 1433.84 8.08943 1433.97 7.7644 1433.97Z" fill="#92C6FF"/>
<path d="M13.1077 251.679C11.9663 252.534 10.3691 252.914 8.81999 252.593C5.74553 251.956 4.14254 249.496 4.08943 246.433C4.04531 243.943 5.62543 240.877 8.02911 239.886C9.46707 239.293 11.3348 239.899 11.9206 241.416C12.1387 241.983 12.0954 242.532 12.0039 243.086L11.9386 243.456C11.8912 243.711 11.843 243.97 11.816 244.231C11.7613 244.761 12.0644 245.091 12.4476 245.365L12.6437 245.497L13.0979 245.783L13.3152 245.933C13.83 246.301 14.3757 246.826 14.6012 247.762C14.9975 249.4 14.2663 250.81 13.1077 251.679ZM15.5261 254.749C15.0927 254.749 14.6771 254.576 14.3707 254.27C14.0642 253.964 13.8921 253.548 13.8921 253.115C13.8921 252.681 14.0642 252.266 14.3707 251.959C14.6771 251.653 15.0927 251.48 15.5261 251.48C15.9595 251.48 16.3751 251.653 16.6816 251.959C16.988 252.266 17.1602 252.681 17.1602 253.115C17.1602 253.548 16.988 253.964 16.6816 254.27C16.3751 254.576 15.9595 254.749 15.5261 254.749ZM4.49631 253.932C4.27962 253.932 4.0718 253.845 3.91858 253.692C3.76536 253.539 3.67928 253.331 3.67928 253.115C3.67928 252.898 3.76536 252.69 3.91858 252.537C4.0718 252.384 4.27962 252.298 4.49631 252.298C4.71299 252.298 4.92081 252.384 5.07403 252.537C5.22725 252.69 5.31333 252.898 5.31333 253.115C5.31333 253.331 5.22725 253.539 5.07403 253.692C4.92081 253.845 4.71299 253.932 4.49631 253.932ZM11.8495 255.974C11.6886 255.974 11.5292 255.942 11.3805 255.881C11.2318 255.819 11.0967 255.729 10.9829 255.615C10.8691 255.501 10.7789 255.366 10.7173 255.218C10.6557 255.069 10.624 254.91 10.624 254.749C10.624 254.588 10.6557 254.428 10.7173 254.28C10.7789 254.131 10.8691 253.996 10.9829 253.882C11.0967 253.768 11.2318 253.678 11.3805 253.616C11.5292 253.555 11.6886 253.523 11.8495 253.523C12.1745 253.523 12.4863 253.652 12.7161 253.882C12.9459 254.112 13.075 254.424 13.075 254.749C13.075 255.074 12.9459 255.385 12.7161 255.615C12.4863 255.845 12.1745 255.974 11.8495 255.974ZM7.7644 255.974C7.60346 255.974 7.44409 255.942 7.29541 255.881C7.14672 255.819 7.01161 255.729 6.89781 255.615C6.78401 255.501 6.69374 255.366 6.63215 255.218C6.57056 255.069 6.53886 254.91 6.53886 254.749C6.53886 254.588 6.57056 254.428 6.63215 254.28C6.69374 254.131 6.78401 253.996 6.89781 253.882C7.01161 253.768 7.14672 253.678 7.29541 253.616C7.44409 253.555 7.60346 253.523 7.7644 253.523C8.08943 253.523 8.40115 253.652 8.63098 253.882C8.86081 254.112 8.98993 254.424 8.98993 254.749C8.98993 255.074 8.86081 255.385 8.63098 255.615C8.40115 255.845 8.08943 255.974 7.7644 255.974Z" fill="#92C6FF"/>
<path d="M13.1077 723.679C11.9663 724.534 10.3691 724.913 8.81999 724.593C5.74553 723.956 4.14254 721.495 4.08943 718.432C4.04531 715.943 5.62543 712.877 8.02911 711.886C9.46707 711.292 11.3348 711.899 11.9206 713.416C12.1387 713.982 12.0954 714.532 12.0039 715.086L11.9386 715.455C11.8912 715.711 11.843 715.969 11.816 716.231C11.7613 716.761 12.0644 717.091 12.4476 717.365L12.6437 717.497L13.0979 717.783L13.3152 717.932C13.83 718.301 14.3757 718.825 14.6012 719.762C14.9975 721.4 14.2663 722.809 13.1077 723.679ZM15.5261 726.748C15.0927 726.748 14.6771 726.576 14.3707 726.269C14.0642 725.963 13.8921 725.547 13.8921 725.114C13.8921 724.681 14.0642 724.265 14.3707 723.959C14.6771 723.652 15.0927 723.48 15.5261 723.48C15.9595 723.48 16.3751 723.652 16.6816 723.959C16.988 724.265 17.1602 724.681 17.1602 725.114C17.1602 725.547 16.988 725.963 16.6816 726.269C16.3751 726.576 15.9595 726.748 15.5261 726.748ZM4.49631 725.931C4.27962 725.931 4.0718 725.845 3.91858 725.692C3.76536 725.539 3.67928 725.331 3.67928 725.114C3.67928 724.897 3.76536 724.69 3.91858 724.536C4.0718 724.383 4.27962 724.297 4.49631 724.297C4.71299 724.297 4.92081 724.383 5.07403 724.536C5.22725 724.69 5.31333 724.897 5.31333 725.114C5.31333 725.331 5.22725 725.539 5.07403 725.692C4.92081 725.845 4.71299 725.931 4.49631 725.931ZM11.8495 727.974C11.6886 727.974 11.5292 727.942 11.3805 727.88C11.2318 727.819 11.0967 727.728 10.9829 727.615C10.8691 727.501 10.7789 727.366 10.7173 727.217C10.6557 727.068 10.624 726.909 10.624 726.748C10.624 726.587 10.6557 726.428 10.7173 726.279C10.7789 726.13 10.8691 725.995 10.9829 725.882C11.0967 725.768 11.2318 725.677 11.3805 725.616C11.5292 725.554 11.6886 725.523 11.8495 725.523C12.1745 725.523 12.4863 725.652 12.7161 725.882C12.9459 726.111 13.075 726.423 13.075 726.748C13.075 727.073 12.9459 727.385 12.7161 727.615C12.4863 727.845 12.1745 727.974 11.8495 727.974ZM7.7644 727.974C7.60346 727.974 7.44409 727.942 7.29541 727.88C7.14672 727.819 7.01161 727.728 6.89781 727.615C6.78401 727.501 6.69374 727.366 6.63215 727.217C6.57056 727.068 6.53886 726.909 6.53886 726.748C6.53886 726.587 6.57056 726.428 6.63215 726.279C6.69374 726.13 6.78401 725.995 6.89781 725.882C7.01161 725.768 7.14672 725.677 7.29541 725.616C7.44409 725.554 7.60346 725.523 7.7644 725.523C8.08943 725.523 8.40115 725.652 8.63098 725.882C8.86081 726.111 8.98993 726.423 8.98993 726.748C8.98993 727.073 8.86081 727.385 8.63098 727.615C8.40115 727.845 8.08943 727.974 7.7644 727.974Z" fill="#92C6FF"/>
<path d="M13.1077 1195.68C11.9663 1196.53 10.3691 1196.91 8.81999 1196.59C5.74553 1195.96 4.14254 1193.5 4.08943 1190.43C4.04531 1187.94 5.62543 1184.88 8.02911 1183.89C9.46707 1183.29 11.3348 1183.9 11.9206 1185.42C12.1387 1185.98 12.0954 1186.53 12.0039 1187.09L11.9386 1187.46C11.8912 1187.71 11.843 1187.97 11.816 1188.23C11.7613 1188.76 12.0644 1189.09 12.4476 1189.36L12.6437 1189.5L13.0979 1189.78L13.3152 1189.93C13.83 1190.3 14.3757 1190.83 14.6012 1191.76C14.9975 1193.4 14.2663 1194.81 13.1077 1195.68ZM15.5261 1198.75C15.0927 1198.75 14.6771 1198.58 14.3707 1198.27C14.0642 1197.96 13.8921 1197.55 13.8921 1197.11C13.8921 1196.68 14.0642 1196.27 14.3707 1195.96C14.6771 1195.65 15.0927 1195.48 15.5261 1195.48C15.9595 1195.48 16.3751 1195.65 16.6816 1195.96C16.988 1196.27 17.1602 1196.68 17.1602 1197.11C17.1602 1197.55 16.988 1197.96 16.6816 1198.27C16.3751 1198.58 15.9595 1198.75 15.5261 1198.75ZM4.49631 1197.93C4.27962 1197.93 4.0718 1197.84 3.91858 1197.69C3.76536 1197.54 3.67928 1197.33 3.67928 1197.11C3.67928 1196.9 3.76536 1196.69 3.91858 1196.54C4.0718 1196.38 4.27962 1196.3 4.49631 1196.3C4.71299 1196.3 4.92081 1196.38 5.07403 1196.54C5.22725 1196.69 5.31333 1196.9 5.31333 1197.11C5.31333 1197.33 5.22725 1197.54 5.07403 1197.69C4.92081 1197.84 4.71299 1197.93 4.49631 1197.93ZM11.8495 1199.97C11.6886 1199.97 11.5292 1199.94 11.3805 1199.88C11.2318 1199.82 11.0967 1199.73 10.9829 1199.61C10.8691 1199.5 10.7789 1199.37 10.7173 1199.22C10.6557 1199.07 10.624 1198.91 10.624 1198.75C10.624 1198.59 10.6557 1198.43 10.7173 1198.28C10.7789 1198.13 10.8691 1198 10.9829 1197.88C11.0967 1197.77 11.2318 1197.68 11.3805 1197.62C11.5292 1197.55 11.6886 1197.52 11.8495 1197.52C12.1745 1197.52 12.4863 1197.65 12.7161 1197.88C12.9459 1198.11 13.075 1198.42 13.075 1198.75C13.075 1199.07 12.9459 1199.38 12.7161 1199.61C12.4863 1199.84 12.1745 1199.97 11.8495 1199.97ZM7.7644 1199.97C7.60346 1199.97 7.44409 1199.94 7.29541 1199.88C7.14672 1199.82 7.01161 1199.73 6.89781 1199.61C6.78401 1199.5 6.69374 1199.37 6.63215 1199.22C6.57056 1199.07 6.53886 1198.91 6.53886 1198.75C6.53886 1198.59 6.57056 1198.43 6.63215 1198.28C6.69374 1198.13 6.78401 1198 6.89781 1197.88C7.01161 1197.77 7.14672 1197.68 7.29541 1197.62C7.44409 1197.55 7.60346 1197.52 7.7644 1197.52C8.08943 1197.52 8.40115 1197.65 8.63098 1197.88C8.86081 1198.11 8.98993 1198.42 8.98993 1198.75C8.98993 1199.07 8.86081 1199.38 8.63098 1199.61C8.40115 1199.84 8.08943 1199.97 7.7644 1199.97Z" fill="#92C6FF"/>
<path d="M13.1077 132.679C11.9663 133.534 10.3691 133.914 8.81999 133.593C5.74553 132.956 4.14254 130.496 4.08943 127.433C4.04531 124.943 5.62543 121.877 8.02911 120.886C9.46707 120.293 11.3348 120.899 11.9206 122.416C12.1387 122.983 12.0954 123.532 12.0039 124.086L11.9386 124.456C11.8912 124.711 11.843 124.97 11.816 125.231C11.7613 125.761 12.0644 126.091 12.4476 126.365L12.6437 126.497L13.0979 126.783L13.3152 126.933C13.83 127.301 14.3757 127.826 14.6012 128.762C14.9975 130.4 14.2663 131.81 13.1077 132.679ZM15.5261 135.749C15.0927 135.749 14.6771 135.576 14.3707 135.27C14.0642 134.964 13.8921 134.548 13.8921 134.115C13.8921 133.681 14.0642 133.266 14.3707 132.959C14.6771 132.653 15.0927 132.48 15.5261 132.48C15.9595 132.48 16.3751 132.653 16.6816 132.959C16.988 133.266 17.1602 133.681 17.1602 134.115C17.1602 134.548 16.988 134.964 16.6816 135.27C16.3751 135.576 15.9595 135.749 15.5261 135.749ZM4.49631 134.932C4.27962 134.932 4.0718 134.845 3.91858 134.692C3.76536 134.539 3.67928 134.331 3.67928 134.115C3.67928 133.898 3.76536 133.69 3.91858 133.537C4.0718 133.384 4.27962 133.298 4.49631 133.298C4.71299 133.298 4.92081 133.384 5.07403 133.537C5.22725 133.69 5.31333 133.898 5.31333 134.115C5.31333 134.331 5.22725 134.539 5.07403 134.692C4.92081 134.845 4.71299 134.932 4.49631 134.932ZM11.8495 136.974C11.6886 136.974 11.5292 136.942 11.3805 136.881C11.2318 136.819 11.0967 136.729 10.9829 136.615C10.8691 136.501 10.7789 136.366 10.7173 136.218C10.6557 136.069 10.624 135.91 10.624 135.749C10.624 135.588 10.6557 135.428 10.7173 135.28C10.7789 135.131 10.8691 134.996 10.9829 134.882C11.0967 134.768 11.2318 134.678 11.3805 134.616C11.5292 134.555 11.6886 134.523 11.8495 134.523C12.1745 134.523 12.4863 134.652 12.7161 134.882C12.9459 135.112 13.075 135.424 13.075 135.749C13.075 136.074 12.9459 136.385 12.7161 136.615C12.4863 136.845 12.1745 136.974 11.8495 136.974ZM7.7644 136.974C7.60346 136.974 7.44409 136.942 7.29541 136.881C7.14672 136.819 7.01161 136.729 6.89781 136.615C6.78401 136.501 6.69374 136.366 6.63215 136.218C6.57056 136.069 6.53886 135.91 6.53886 135.749C6.53886 135.588 6.57056 135.428 6.63215 135.28C6.69374 135.131 6.78401 134.996 6.89781 134.882C7.01161 134.768 7.14672 134.678 7.29541 134.616C7.44409 134.555 7.60346 134.523 7.7644 134.523C8.08943 134.523 8.40115 134.652 8.63098 134.882C8.86081 135.112 8.98993 135.424 8.98993 135.749C8.98993 136.074 8.86081 136.385 8.63098 136.615C8.40115 136.845 8.08943 136.974 7.7644 136.974Z" fill="#92C6FF"/>
<path d="M13.1077 604.679C11.9663 605.534 10.3691 605.913 8.81999 605.593C5.74553 604.956 4.14254 602.495 4.08943 599.432C4.04531 596.943 5.62543 593.877 8.02911 592.886C9.46707 592.292 11.3348 592.899 11.9206 594.416C12.1387 594.982 12.0954 595.532 12.0039 596.086L11.9386 596.455C11.8912 596.711 11.843 596.969 11.816 597.231C11.7613 597.761 12.0644 598.091 12.4476 598.365L12.6437 598.497L13.0979 598.783L13.3152 598.932C13.83 599.301 14.3757 599.825 14.6012 600.762C14.9975 602.4 14.2663 603.809 13.1077 604.679ZM15.5261 607.748C15.0927 607.748 14.6771 607.576 14.3707 607.269C14.0642 606.963 13.8921 606.547 13.8921 606.114C13.8921 605.681 14.0642 605.265 14.3707 604.959C14.6771 604.652 15.0927 604.48 15.5261 604.48C15.9595 604.48 16.3751 604.652 16.6816 604.959C16.988 605.265 17.1602 605.681 17.1602 606.114C17.1602 606.547 16.988 606.963 16.6816 607.269C16.3751 607.576 15.9595 607.748 15.5261 607.748ZM4.49631 606.931C4.27962 606.931 4.0718 606.845 3.91858 606.692C3.76536 606.539 3.67928 606.331 3.67928 606.114C3.67928 605.897 3.76536 605.69 3.91858 605.536C4.0718 605.383 4.27962 605.297 4.49631 605.297C4.71299 605.297 4.92081 605.383 5.07403 605.536C5.22725 605.69 5.31333 605.897 5.31333 606.114C5.31333 606.331 5.22725 606.539 5.07403 606.692C4.92081 606.845 4.71299 606.931 4.49631 606.931ZM11.8495 608.974C11.6886 608.974 11.5292 608.942 11.3805 608.88C11.2318 608.819 11.0967 608.728 10.9829 608.615C10.8691 608.501 10.7789 608.366 10.7173 608.217C10.6557 608.068 10.624 607.909 10.624 607.748C10.624 607.587 10.6557 607.428 10.7173 607.279C10.7789 607.13 10.8691 606.995 10.9829 606.882C11.0967 606.768 11.2318 606.677 11.3805 606.616C11.5292 606.554 11.6886 606.523 11.8495 606.523C12.1745 606.523 12.4863 606.652 12.7161 606.882C12.9459 607.111 13.075 607.423 13.075 607.748C13.075 608.073 12.9459 608.385 12.7161 608.615C12.4863 608.845 12.1745 608.974 11.8495 608.974ZM7.7644 608.974C7.60346 608.974 7.44409 608.942 7.29541 608.88C7.14672 608.819 7.01161 608.728 6.89781 608.615C6.78401 608.501 6.69374 608.366 6.63215 608.217C6.57056 608.068 6.53886 607.909 6.53886 607.748C6.53886 607.587 6.57056 607.428 6.63215 607.279C6.69374 607.13 6.78401 606.995 6.89781 606.882C7.01161 606.768 7.14672 606.677 7.29541 606.616C7.44409 606.554 7.60346 606.523 7.7644 606.523C8.08943 606.523 8.40115 606.652 8.63098 606.882C8.86081 607.111 8.98993 607.423 8.98993 607.748C8.98993 608.073 8.86081 608.385 8.63098 608.615C8.40115 608.845 8.08943 608.974 7.7644 608.974Z" fill="#92C6FF"/>
<path d="M13.1077 1076.68C11.9663 1077.53 10.3691 1077.91 8.81999 1077.59C5.74553 1076.96 4.14254 1074.5 4.08943 1071.43C4.04531 1068.94 5.62543 1065.88 8.02911 1064.89C9.46707 1064.29 11.3348 1064.9 11.9206 1066.42C12.1387 1066.98 12.0954 1067.53 12.0039 1068.09L11.9386 1068.46C11.8912 1068.71 11.843 1068.97 11.816 1069.23C11.7613 1069.76 12.0644 1070.09 12.4476 1070.36L12.6437 1070.5L13.0979 1070.78L13.3152 1070.93C13.83 1071.3 14.3757 1071.83 14.6012 1072.76C14.9975 1074.4 14.2663 1075.81 13.1077 1076.68ZM15.5261 1079.75C15.0927 1079.75 14.6771 1079.58 14.3707 1079.27C14.0642 1078.96 13.8921 1078.55 13.8921 1078.11C13.8921 1077.68 14.0642 1077.27 14.3707 1076.96C14.6771 1076.65 15.0927 1076.48 15.5261 1076.48C15.9595 1076.48 16.3751 1076.65 16.6816 1076.96C16.988 1077.27 17.1602 1077.68 17.1602 1078.11C17.1602 1078.55 16.988 1078.96 16.6816 1079.27C16.3751 1079.58 15.9595 1079.75 15.5261 1079.75ZM4.49631 1078.93C4.27962 1078.93 4.0718 1078.84 3.91858 1078.69C3.76536 1078.54 3.67928 1078.33 3.67928 1078.11C3.67928 1077.9 3.76536 1077.69 3.91858 1077.54C4.0718 1077.38 4.27962 1077.3 4.49631 1077.3C4.71299 1077.3 4.92081 1077.38 5.07403 1077.54C5.22725 1077.69 5.31333 1077.9 5.31333 1078.11C5.31333 1078.33 5.22725 1078.54 5.07403 1078.69C4.92081 1078.84 4.71299 1078.93 4.49631 1078.93ZM11.8495 1080.97C11.6886 1080.97 11.5292 1080.94 11.3805 1080.88C11.2318 1080.82 11.0967 1080.73 10.9829 1080.61C10.8691 1080.5 10.7789 1080.37 10.7173 1080.22C10.6557 1080.07 10.624 1079.91 10.624 1079.75C10.624 1079.59 10.6557 1079.43 10.7173 1079.28C10.7789 1079.13 10.8691 1079 10.9829 1078.88C11.0967 1078.77 11.2318 1078.68 11.3805 1078.62C11.5292 1078.55 11.6886 1078.52 11.8495 1078.52C12.1745 1078.52 12.4863 1078.65 12.7161 1078.88C12.9459 1079.11 13.075 1079.42 13.075 1079.75C13.075 1080.07 12.9459 1080.38 12.7161 1080.61C12.4863 1080.84 12.1745 1080.97 11.8495 1080.97ZM7.7644 1080.97C7.60346 1080.97 7.44409 1080.94 7.29541 1080.88C7.14672 1080.82 7.01161 1080.73 6.89781 1080.61C6.78401 1080.5 6.69374 1080.37 6.63215 1080.22C6.57056 1080.07 6.53886 1079.91 6.53886 1079.75C6.53886 1079.59 6.57056 1079.43 6.63215 1079.28C6.69374 1079.13 6.78401 1079 6.89781 1078.88C7.01161 1078.77 7.14672 1078.68 7.29541 1078.62C7.44409 1078.55 7.60346 1078.52 7.7644 1078.52C8.08943 1078.52 8.40115 1078.65 8.63098 1078.88C8.86081 1079.11 8.98993 1079.42 8.98993 1079.75C8.98993 1080.07 8.86081 1080.38 8.63098 1080.61C8.40115 1080.84 8.08943 1080.97 7.7644 1080.97Z" fill="#92C6FF"/>
<path d="M13.1077 1548.68C11.9663 1549.53 10.3691 1549.91 8.81999 1549.59C5.74553 1548.96 4.14254 1546.5 4.08943 1543.43C4.04531 1540.94 5.62543 1537.88 8.02911 1536.89C9.46707 1536.29 11.3348 1536.9 11.9206 1538.42C12.1387 1538.98 12.0954 1539.53 12.0039 1540.09L11.9386 1540.46C11.8912 1540.71 11.843 1540.97 11.816 1541.23C11.7613 1541.76 12.0644 1542.09 12.4476 1542.36L12.6437 1542.5L13.0979 1542.78L13.3152 1542.93C13.83 1543.3 14.3757 1543.83 14.6012 1544.76C14.9975 1546.4 14.2663 1547.81 13.1077 1548.68ZM15.5261 1551.75C15.0927 1551.75 14.6771 1551.58 14.3707 1551.27C14.0642 1550.96 13.8921 1550.55 13.8921 1550.11C13.8921 1549.68 14.0642 1549.27 14.3707 1548.96C14.6771 1548.65 15.0927 1548.48 15.5261 1548.48C15.9595 1548.48 16.3751 1548.65 16.6816 1548.96C16.988 1549.27 17.1602 1549.68 17.1602 1550.11C17.1602 1550.55 16.988 1550.96 16.6816 1551.27C16.3751 1551.58 15.9595 1551.75 15.5261 1551.75ZM4.49631 1550.93C4.27962 1550.93 4.0718 1550.84 3.91858 1550.69C3.76536 1550.54 3.67928 1550.33 3.67928 1550.11C3.67928 1549.9 3.76536 1549.69 3.91858 1549.54C4.0718 1549.38 4.27962 1549.3 4.49631 1549.3C4.71299 1549.3 4.92081 1549.38 5.07403 1549.54C5.22725 1549.69 5.31333 1549.9 5.31333 1550.11C5.31333 1550.33 5.22725 1550.54 5.07403 1550.69C4.92081 1550.84 4.71299 1550.93 4.49631 1550.93ZM11.8495 1552.97C11.6886 1552.97 11.5292 1552.94 11.3805 1552.88C11.2318 1552.82 11.0967 1552.73 10.9829 1552.61C10.8691 1552.5 10.7789 1552.37 10.7173 1552.22C10.6557 1552.07 10.624 1551.91 10.624 1551.75C10.624 1551.59 10.6557 1551.43 10.7173 1551.28C10.7789 1551.13 10.8691 1551 10.9829 1550.88C11.0967 1550.77 11.2318 1550.68 11.3805 1550.62C11.5292 1550.55 11.6886 1550.52 11.8495 1550.52C12.1745 1550.52 12.4863 1550.65 12.7161 1550.88C12.9459 1551.11 13.075 1551.42 13.075 1551.75C13.075 1552.07 12.9459 1552.38 12.7161 1552.61C12.4863 1552.84 12.1745 1552.97 11.8495 1552.97ZM7.7644 1552.97C7.60346 1552.97 7.44409 1552.94 7.29541 1552.88C7.14672 1552.82 7.01161 1552.73 6.89781 1552.61C6.78401 1552.5 6.69374 1552.37 6.63215 1552.22C6.57056 1552.07 6.53886 1551.91 6.53886 1551.75C6.53886 1551.59 6.57056 1551.43 6.63215 1551.28C6.69374 1551.13 6.78401 1551 6.89781 1550.88C7.01161 1550.77 7.14672 1550.68 7.29541 1550.62C7.44409 1550.55 7.60346 1550.52 7.7644 1550.52C8.08943 1550.52 8.40115 1550.65 8.63098 1550.88C8.86081 1551.11 8.98993 1551.42 8.98993 1551.75C8.98993 1552.07 8.86081 1552.38 8.63098 1552.61C8.40115 1552.84 8.08943 1552.97 7.7644 1552.97Z" fill="#92C6FF"/>
<path d="M13.1077 370.679C11.9663 371.534 10.3691 371.914 8.81999 371.593C5.74553 370.956 4.14254 368.496 4.08943 365.433C4.04531 362.943 5.62543 359.877 8.02911 358.886C9.46707 358.293 11.3348 358.899 11.9206 360.416C12.1387 360.983 12.0954 361.532 12.0039 362.086L11.9386 362.456C11.8912 362.711 11.843 362.97 11.816 363.231C11.7613 363.761 12.0644 364.091 12.4476 364.365L12.6437 364.497L13.0979 364.783L13.3152 364.933C13.83 365.301 14.3757 365.826 14.6012 366.762C14.9975 368.4 14.2663 369.81 13.1077 370.679ZM15.5261 373.749C15.0927 373.749 14.6771 373.576 14.3707 373.27C14.0642 372.964 13.8921 372.548 13.8921 372.115C13.8921 371.681 14.0642 371.266 14.3707 370.959C14.6771 370.653 15.0927 370.48 15.5261 370.48C15.9595 370.48 16.3751 370.653 16.6816 370.959C16.988 371.266 17.1602 371.681 17.1602 372.115C17.1602 372.548 16.988 372.964 16.6816 373.27C16.3751 373.576 15.9595 373.749 15.5261 373.749ZM4.49631 372.932C4.27962 372.932 4.0718 372.845 3.91858 372.692C3.76536 372.539 3.67928 372.331 3.67928 372.115C3.67928 371.898 3.76536 371.69 3.91858 371.537C4.0718 371.384 4.27962 371.298 4.49631 371.298C4.71299 371.298 4.92081 371.384 5.07403 371.537C5.22725 371.69 5.31333 371.898 5.31333 372.115C5.31333 372.331 5.22725 372.539 5.07403 372.692C4.92081 372.845 4.71299 372.932 4.49631 372.932ZM11.8495 374.974C11.6886 374.974 11.5292 374.942 11.3805 374.881C11.2318 374.819 11.0967 374.729 10.9829 374.615C10.8691 374.501 10.7789 374.366 10.7173 374.218C10.6557 374.069 10.624 373.91 10.624 373.749C10.624 373.588 10.6557 373.428 10.7173 373.28C10.7789 373.131 10.8691 372.996 10.9829 372.882C11.0967 372.768 11.2318 372.678 11.3805 372.616C11.5292 372.555 11.6886 372.523 11.8495 372.523C12.1745 372.523 12.4863 372.652 12.7161 372.882C12.9459 373.112 13.075 373.424 13.075 373.749C13.075 374.074 12.9459 374.385 12.7161 374.615C12.4863 374.845 12.1745 374.974 11.8495 374.974ZM7.7644 374.974C7.60346 374.974 7.44409 374.942 7.29541 374.881C7.14672 374.819 7.01161 374.729 6.89781 374.615C6.78401 374.501 6.69374 374.366 6.63215 374.218C6.57056 374.069 6.53886 373.91 6.53886 373.749C6.53886 373.588 6.57056 373.428 6.63215 373.28C6.69374 373.131 6.78401 372.996 6.89781 372.882C7.01161 372.768 7.14672 372.678 7.29541 372.616C7.44409 372.555 7.60346 372.523 7.7644 372.523C8.08943 372.523 8.40115 372.652 8.63098 372.882C8.86081 373.112 8.98993 373.424 8.98993 373.749C8.98993 374.074 8.86081 374.385 8.63098 374.615C8.40115 374.845 8.08943 374.974 7.7644 374.974Z" fill="#92C6FF"/>
<path d="M13.1077 842.679C11.9663 843.534 10.3691 843.913 8.81999 843.593C5.74553 842.956 4.14254 840.495 4.08943 837.432C4.04531 834.943 5.62543 831.877 8.02911 830.886C9.46707 830.292 11.3348 830.899 11.9206 832.416C12.1387 832.982 12.0954 833.532 12.0039 834.086L11.9386 834.455C11.8912 834.711 11.843 834.969 11.816 835.231C11.7613 835.761 12.0644 836.091 12.4476 836.365L12.6437 836.497L13.0979 836.783L13.3152 836.932C13.83 837.301 14.3757 837.825 14.6012 838.762C14.9975 840.4 14.2663 841.809 13.1077 842.679ZM15.5261 845.748C15.0927 845.748 14.6771 845.576 14.3707 845.269C14.0642 844.963 13.8921 844.547 13.8921 844.114C13.8921 843.681 14.0642 843.265 14.3707 842.959C14.6771 842.652 15.0927 842.48 15.5261 842.48C15.9595 842.48 16.3751 842.652 16.6816 842.959C16.988 843.265 17.1602 843.681 17.1602 844.114C17.1602 844.547 16.988 844.963 16.6816 845.269C16.3751 845.576 15.9595 845.748 15.5261 845.748ZM4.49631 844.931C4.27962 844.931 4.0718 844.845 3.91858 844.692C3.76536 844.539 3.67928 844.331 3.67928 844.114C3.67928 843.897 3.76536 843.69 3.91858 843.536C4.0718 843.383 4.27962 843.297 4.49631 843.297C4.71299 843.297 4.92081 843.383 5.07403 843.536C5.22725 843.69 5.31333 843.897 5.31333 844.114C5.31333 844.331 5.22725 844.539 5.07403 844.692C4.92081 844.845 4.71299 844.931 4.49631 844.931ZM11.8495 846.974C11.6886 846.974 11.5292 846.942 11.3805 846.88C11.2318 846.819 11.0967 846.728 10.9829 846.615C10.8691 846.501 10.7789 846.366 10.7173 846.217C10.6557 846.068 10.624 845.909 10.624 845.748C10.624 845.587 10.6557 845.428 10.7173 845.279C10.7789 845.13 10.8691 844.995 10.9829 844.882C11.0967 844.768 11.2318 844.677 11.3805 844.616C11.5292 844.554 11.6886 844.523 11.8495 844.523C12.1745 844.523 12.4863 844.652 12.7161 844.882C12.9459 845.111 13.075 845.423 13.075 845.748C13.075 846.073 12.9459 846.385 12.7161 846.615C12.4863 846.845 12.1745 846.974 11.8495 846.974ZM7.7644 846.974C7.60346 846.974 7.44409 846.942 7.29541 846.88C7.14672 846.819 7.01161 846.728 6.89781 846.615C6.78401 846.501 6.69374 846.366 6.63215 846.217C6.57056 846.068 6.53886 845.909 6.53886 845.748C6.53886 845.587 6.57056 845.428 6.63215 845.279C6.69374 845.13 6.78401 844.995 6.89781 844.882C7.01161 844.768 7.14672 844.677 7.29541 844.616C7.44409 844.554 7.60346 844.523 7.7644 844.523C8.08943 844.523 8.40115 844.652 8.63098 844.882C8.86081 845.111 8.98993 845.423 8.98993 845.748C8.98993 846.073 8.86081 846.385 8.63098 846.615C8.40115 846.845 8.08943 846.974 7.7644 846.974Z" fill="#92C6FF"/>
<path d="M13.1077 1314.68C11.9663 1315.53 10.3691 1315.91 8.81999 1315.59C5.74553 1314.96 4.14254 1312.5 4.08943 1309.43C4.04531 1306.94 5.62543 1303.88 8.02911 1302.89C9.46707 1302.29 11.3348 1302.9 11.9206 1304.42C12.1387 1304.98 12.0954 1305.53 12.0039 1306.09L11.9386 1306.46C11.8912 1306.71 11.843 1306.97 11.816 1307.23C11.7613 1307.76 12.0644 1308.09 12.4476 1308.36L12.6437 1308.5L13.0979 1308.78L13.3152 1308.93C13.83 1309.3 14.3757 1309.83 14.6012 1310.76C14.9975 1312.4 14.2663 1313.81 13.1077 1314.68ZM15.5261 1317.75C15.0927 1317.75 14.6771 1317.58 14.3707 1317.27C14.0642 1316.96 13.8921 1316.55 13.8921 1316.11C13.8921 1315.68 14.0642 1315.27 14.3707 1314.96C14.6771 1314.65 15.0927 1314.48 15.5261 1314.48C15.9595 1314.48 16.3751 1314.65 16.6816 1314.96C16.988 1315.27 17.1602 1315.68 17.1602 1316.11C17.1602 1316.55 16.988 1316.96 16.6816 1317.27C16.3751 1317.58 15.9595 1317.75 15.5261 1317.75ZM4.49631 1316.93C4.27962 1316.93 4.0718 1316.84 3.91858 1316.69C3.76536 1316.54 3.67928 1316.33 3.67928 1316.11C3.67928 1315.9 3.76536 1315.69 3.91858 1315.54C4.0718 1315.38 4.27962 1315.3 4.49631 1315.3C4.71299 1315.3 4.92081 1315.38 5.07403 1315.54C5.22725 1315.69 5.31333 1315.9 5.31333 1316.11C5.31333 1316.33 5.22725 1316.54 5.07403 1316.69C4.92081 1316.84 4.71299 1316.93 4.49631 1316.93ZM11.8495 1318.97C11.6886 1318.97 11.5292 1318.94 11.3805 1318.88C11.2318 1318.82 11.0967 1318.73 10.9829 1318.61C10.8691 1318.5 10.7789 1318.37 10.7173 1318.22C10.6557 1318.07 10.624 1317.91 10.624 1317.75C10.624 1317.59 10.6557 1317.43 10.7173 1317.28C10.7789 1317.13 10.8691 1317 10.9829 1316.88C11.0967 1316.77 11.2318 1316.68 11.3805 1316.62C11.5292 1316.55 11.6886 1316.52 11.8495 1316.52C12.1745 1316.52 12.4863 1316.65 12.7161 1316.88C12.9459 1317.11 13.075 1317.42 13.075 1317.75C13.075 1318.07 12.9459 1318.38 12.7161 1318.61C12.4863 1318.84 12.1745 1318.97 11.8495 1318.97ZM7.7644 1318.97C7.60346 1318.97 7.44409 1318.94 7.29541 1318.88C7.14672 1318.82 7.01161 1318.73 6.89781 1318.61C6.78401 1318.5 6.69374 1318.37 6.63215 1318.22C6.57056 1318.07 6.53886 1317.91 6.53886 1317.75C6.53886 1317.59 6.57056 1317.43 6.63215 1317.28C6.69374 1317.13 6.78401 1317 6.89781 1316.88C7.01161 1316.77 7.14672 1316.68 7.29541 1316.62C7.44409 1316.55 7.60346 1316.52 7.7644 1316.52C8.08943 1316.52 8.40115 1316.65 8.63098 1316.88C8.86081 1317.11 8.98993 1317.42 8.98993 1317.75C8.98993 1318.07 8.86081 1318.38 8.63098 1318.61C8.40115 1318.84 8.08943 1318.97 7.7644 1318.97Z" fill="#92C6FF"/>
<path d="M21.447 73.2884C22.5883 74.1438 24.1856 74.5229 25.7347 74.2027C28.8092 73.5654 30.4122 71.1053 30.4653 68.0423C30.5094 65.5528 28.9293 62.4866 26.5256 61.4955C25.0876 60.9023 23.2199 61.5086 22.6341 63.0258C22.416 63.592 22.4593 64.1418 22.5508 64.6958L22.6161 65.0651C22.6635 65.3208 22.7117 65.579 22.7387 65.8404C22.7934 66.3707 22.4903 66.7008 22.1071 66.9745L21.911 67.1068L21.4568 67.3928L21.2394 67.5423C20.7247 67.9108 20.1789 68.4353 19.9534 69.3716C19.5572 71.0097 20.2884 72.4191 21.447 73.2884ZM19.0286 76.358C19.462 76.358 19.8776 76.1858 20.184 75.8794C20.4905 75.5729 20.6626 75.1573 20.6626 74.7239C20.6626 74.2905 20.4905 73.8749 20.184 73.5685C19.8776 73.262 19.462 73.0899 19.0286 73.0899C18.5952 73.0899 18.1796 73.262 17.8731 73.5685C17.5667 73.8749 17.3945 74.2905 17.3945 74.7239C17.3945 75.1573 17.5667 75.5729 17.8731 75.8794C18.1796 76.1858 18.5952 76.358 19.0286 76.358ZM30.0584 75.5409C30.2751 75.5409 30.4829 75.4549 30.6361 75.3016C30.7893 75.1484 30.8754 74.9406 30.8754 74.7239C30.8754 74.5072 30.7893 74.2994 30.6361 74.1462C30.4829 73.993 30.2751 73.9069 30.0584 73.9069C29.8417 73.9069 29.6339 73.993 29.4807 74.1462C29.3274 74.2994 29.2414 74.5072 29.2414 74.7239C29.2414 74.9406 29.3274 75.1484 29.4807 75.3016C29.6339 75.4549 29.8417 75.5409 30.0584 75.5409ZM22.7052 77.5835C22.8661 77.5835 23.0255 77.5518 23.1742 77.4902C23.3229 77.4286 23.458 77.3383 23.5718 77.2245C23.6856 77.1107 23.7758 76.9756 23.8374 76.827C23.899 76.6783 23.9307 76.5189 23.9307 76.358C23.9307 76.197 23.899 76.0377 23.8374 75.889C23.7758 75.7403 23.6856 75.6052 23.5718 75.4914C23.458 75.3776 23.3229 75.2873 23.1742 75.2257C23.0255 75.1641 22.8661 75.1324 22.7052 75.1324C22.3801 75.1324 22.0684 75.2615 21.8386 75.4914C21.6088 75.7212 21.4796 76.0329 21.4796 76.358C21.4796 76.683 21.6088 76.9947 21.8386 77.2245C22.0684 77.4544 22.3801 77.5835 22.7052 77.5835ZM26.7903 77.5835C26.9512 77.5835 27.1106 77.5518 27.2593 77.4902C27.408 77.4286 27.5431 77.3383 27.6569 77.2245C27.7707 77.1107 27.8609 76.9756 27.9225 76.827C27.9841 76.6783 28.0158 76.5189 28.0158 76.358C28.0158 76.197 27.9841 76.0377 27.9225 75.889C27.8609 75.7403 27.7707 75.6052 27.6569 75.4914C27.5431 75.3776 27.408 75.2873 27.2593 75.2257C27.1106 75.1641 26.9512 75.1324 26.7903 75.1324C26.4653 75.1324 26.1535 75.2615 25.9237 75.4914C25.6939 75.7212 25.5648 76.0329 25.5648 76.358C25.5648 76.683 25.6939 76.9947 25.9237 77.2245C26.1535 77.4544 26.4653 77.5835 26.7903 77.5835Z" fill="#92C6FF"/>
<path d="M21.447 545.287C22.5883 546.142 24.1856 546.521 25.7347 546.201C28.8092 545.564 30.4122 543.104 30.4653 540.041C30.5094 537.551 28.9293 534.485 26.5256 533.494C25.0876 532.901 23.2199 533.507 22.6341 535.024C22.416 535.591 22.4593 536.14 22.5508 536.694L22.6161 537.064C22.6635 537.319 22.7117 537.578 22.7387 537.839C22.7934 538.369 22.4903 538.699 22.1071 538.973L21.911 539.105L21.4568 539.391L21.2394 539.541C20.7247 539.909 20.1789 540.434 19.9534 541.37C19.5572 543.008 20.2884 544.418 21.447 545.287ZM19.0286 548.356C19.462 548.356 19.8776 548.184 20.184 547.878C20.4905 547.571 20.6626 547.156 20.6626 546.722C20.6626 546.289 20.4905 545.873 20.184 545.567C19.8776 545.261 19.462 545.088 19.0286 545.088C18.5952 545.088 18.1796 545.261 17.8731 545.567C17.5667 545.873 17.3945 546.289 17.3945 546.722C17.3945 547.156 17.5667 547.571 17.8731 547.878C18.1796 548.184 18.5952 548.356 19.0286 548.356ZM30.0584 547.539C30.2751 547.539 30.4829 547.453 30.6361 547.3C30.7893 547.147 30.8754 546.939 30.8754 546.722C30.8754 546.506 30.7893 546.298 30.6361 546.145C30.4829 545.992 30.2751 545.905 30.0584 545.905C29.8417 545.905 29.6339 545.992 29.4807 546.145C29.3274 546.298 29.2414 546.506 29.2414 546.722C29.2414 546.939 29.3274 547.147 29.4807 547.3C29.6339 547.453 29.8417 547.539 30.0584 547.539ZM22.7052 549.582C22.8661 549.582 23.0255 549.55 23.1742 549.489C23.3229 549.427 23.458 549.337 23.5718 549.223C23.6856 549.109 23.7758 548.974 23.8374 548.825C23.899 548.677 23.9307 548.517 23.9307 548.356C23.9307 548.196 23.899 548.036 23.8374 547.888C23.7758 547.739 23.6856 547.604 23.5718 547.49C23.458 547.376 23.3229 547.286 23.1742 547.224C23.0255 547.163 22.8661 547.131 22.7052 547.131C22.3801 547.131 22.0684 547.26 21.8386 547.49C21.6088 547.72 21.4796 548.031 21.4796 548.356C21.4796 548.682 21.6088 548.993 21.8386 549.223C22.0684 549.453 22.3801 549.582 22.7052 549.582ZM26.7903 549.582C26.9512 549.582 27.1106 549.55 27.2593 549.489C27.408 549.427 27.5431 549.337 27.6569 549.223C27.7707 549.109 27.8609 548.974 27.9225 548.825C27.9841 548.677 28.0158 548.517 28.0158 548.356C28.0158 548.196 27.9841 548.036 27.9225 547.888C27.8609 547.739 27.7707 547.604 27.6569 547.49C27.5431 547.376 27.408 547.286 27.2593 547.224C27.1106 547.163 26.9512 547.131 26.7903 547.131C26.4653 547.131 26.1535 547.26 25.9237 547.49C25.6939 547.72 25.5648 548.031 25.5648 548.356C25.5648 548.682 25.6939 548.993 25.9237 549.223C26.1535 549.453 26.4653 549.582 26.7903 549.582Z" fill="#92C6FF"/>
<path d="M21.447 1017.29C22.5883 1018.14 24.1856 1018.52 25.7347 1018.2C28.8092 1017.56 30.4122 1015.1 30.4653 1012.04C30.5094 1009.55 28.9293 1006.49 26.5256 1005.49C25.0876 1004.9 23.2199 1005.51 22.6341 1007.02C22.416 1007.59 22.4593 1008.14 22.5508 1008.69L22.6161 1009.06C22.6635 1009.32 22.7117 1009.58 22.7387 1009.84C22.7934 1010.37 22.4903 1010.7 22.1071 1010.97L21.911 1011.11L21.4568 1011.39L21.2394 1011.54C20.7247 1011.91 20.1789 1012.43 19.9534 1013.37C19.5572 1015.01 20.2884 1016.42 21.447 1017.29ZM19.0286 1020.36C19.462 1020.36 19.8776 1020.18 20.184 1019.88C20.4905 1019.57 20.6626 1019.16 20.6626 1018.72C20.6626 1018.29 20.4905 1017.87 20.184 1017.57C19.8776 1017.26 19.462 1017.09 19.0286 1017.09C18.5952 1017.09 18.1796 1017.26 17.8731 1017.57C17.5667 1017.87 17.3945 1018.29 17.3945 1018.72C17.3945 1019.16 17.5667 1019.57 17.8731 1019.88C18.1796 1020.18 18.5952 1020.36 19.0286 1020.36ZM30.0584 1019.54C30.2751 1019.54 30.4829 1019.45 30.6361 1019.3C30.7893 1019.15 30.8754 1018.94 30.8754 1018.72C30.8754 1018.51 30.7893 1018.3 30.6361 1018.14C30.4829 1017.99 30.2751 1017.91 30.0584 1017.91C29.8417 1017.91 29.6339 1017.99 29.4807 1018.14C29.3274 1018.3 29.2414 1018.51 29.2414 1018.72C29.2414 1018.94 29.3274 1019.15 29.4807 1019.3C29.6339 1019.45 29.8417 1019.54 30.0584 1019.54ZM22.7052 1021.58C22.8661 1021.58 23.0255 1021.55 23.1742 1021.49C23.3229 1021.43 23.458 1021.34 23.5718 1021.22C23.6856 1021.11 23.7758 1020.97 23.8374 1020.83C23.899 1020.68 23.9307 1020.52 23.9307 1020.36C23.9307 1020.2 23.899 1020.04 23.8374 1019.89C23.7758 1019.74 23.6856 1019.6 23.5718 1019.49C23.458 1019.38 23.3229 1019.29 23.1742 1019.22C23.0255 1019.16 22.8661 1019.13 22.7052 1019.13C22.3801 1019.13 22.0684 1019.26 21.8386 1019.49C21.6088 1019.72 21.4796 1020.03 21.4796 1020.36C21.4796 1020.68 21.6088 1020.99 21.8386 1021.22C22.0684 1021.45 22.3801 1021.58 22.7052 1021.58ZM26.7903 1021.58C26.9512 1021.58 27.1106 1021.55 27.2593 1021.49C27.408 1021.43 27.5431 1021.34 27.6569 1021.22C27.7707 1021.11 27.8609 1020.97 27.9225 1020.83C27.9841 1020.68 28.0158 1020.52 28.0158 1020.36C28.0158 1020.2 27.9841 1020.04 27.9225 1019.89C27.8609 1019.74 27.7707 1019.6 27.6569 1019.49C27.5431 1019.38 27.408 1019.29 27.2593 1019.22C27.1106 1019.16 26.9512 1019.13 26.7903 1019.13C26.4653 1019.13 26.1535 1019.26 25.9237 1019.49C25.6939 1019.72 25.5648 1020.03 25.5648 1020.36C25.5648 1020.68 25.6939 1020.99 25.9237 1021.22C26.1535 1021.45 26.4653 1021.58 26.7903 1021.58Z" fill="#92C6FF"/>
<path d="M21.447 1489.29C22.5883 1490.14 24.1856 1490.52 25.7347 1490.2C28.8092 1489.56 30.4122 1487.1 30.4653 1484.04C30.5094 1481.55 28.9293 1478.49 26.5256 1477.49C25.0876 1476.9 23.2199 1477.51 22.6341 1479.02C22.416 1479.59 22.4593 1480.14 22.5508 1480.69L22.6161 1481.06C22.6635 1481.32 22.7117 1481.58 22.7387 1481.84C22.7934 1482.37 22.4903 1482.7 22.1071 1482.97L21.911 1483.11L21.4568 1483.39L21.2394 1483.54C20.7247 1483.91 20.1789 1484.43 19.9534 1485.37C19.5572 1487.01 20.2884 1488.42 21.447 1489.29ZM19.0286 1492.36C19.462 1492.36 19.8776 1492.18 20.184 1491.88C20.4905 1491.57 20.6626 1491.16 20.6626 1490.72C20.6626 1490.29 20.4905 1489.87 20.184 1489.57C19.8776 1489.26 19.462 1489.09 19.0286 1489.09C18.5952 1489.09 18.1796 1489.26 17.8731 1489.57C17.5667 1489.87 17.3945 1490.29 17.3945 1490.72C17.3945 1491.16 17.5667 1491.57 17.8731 1491.88C18.1796 1492.18 18.5952 1492.36 19.0286 1492.36ZM30.0584 1491.54C30.2751 1491.54 30.4829 1491.45 30.6361 1491.3C30.7893 1491.15 30.8754 1490.94 30.8754 1490.72C30.8754 1490.51 30.7893 1490.3 30.6361 1490.14C30.4829 1489.99 30.2751 1489.91 30.0584 1489.91C29.8417 1489.91 29.6339 1489.99 29.4807 1490.14C29.3274 1490.3 29.2414 1490.51 29.2414 1490.72C29.2414 1490.94 29.3274 1491.15 29.4807 1491.3C29.6339 1491.45 29.8417 1491.54 30.0584 1491.54ZM22.7052 1493.58C22.8661 1493.58 23.0255 1493.55 23.1742 1493.49C23.3229 1493.43 23.458 1493.34 23.5718 1493.22C23.6856 1493.11 23.7758 1492.97 23.8374 1492.83C23.899 1492.68 23.9307 1492.52 23.9307 1492.36C23.9307 1492.2 23.899 1492.04 23.8374 1491.89C23.7758 1491.74 23.6856 1491.6 23.5718 1491.49C23.458 1491.38 23.3229 1491.29 23.1742 1491.22C23.0255 1491.16 22.8661 1491.13 22.7052 1491.13C22.3801 1491.13 22.0684 1491.26 21.8386 1491.49C21.6088 1491.72 21.4796 1492.03 21.4796 1492.36C21.4796 1492.68 21.6088 1492.99 21.8386 1493.22C22.0684 1493.45 22.3801 1493.58 22.7052 1493.58ZM26.7903 1493.58C26.9512 1493.58 27.1106 1493.55 27.2593 1493.49C27.408 1493.43 27.5431 1493.34 27.6569 1493.22C27.7707 1493.11 27.8609 1492.97 27.9225 1492.83C27.9841 1492.68 28.0158 1492.52 28.0158 1492.36C28.0158 1492.2 27.9841 1492.04 27.9225 1491.89C27.8609 1491.74 27.7707 1491.6 27.6569 1491.49C27.5431 1491.38 27.408 1491.29 27.2593 1491.22C27.1106 1491.16 26.9512 1491.13 26.7903 1491.13C26.4653 1491.13 26.1535 1491.26 25.9237 1491.49C25.6939 1491.72 25.5648 1492.03 25.5648 1492.36C25.5648 1492.68 25.6939 1492.99 25.9237 1493.22C26.1535 1493.45 26.4653 1493.58 26.7903 1493.58Z" fill="#92C6FF"/>
<path d="M21.447 311.288C22.5883 312.143 24.1856 312.522 25.7347 312.202C28.8092 311.565 30.4122 309.105 30.4653 306.042C30.5094 303.552 28.9293 300.486 26.5256 299.495C25.0876 298.902 23.2199 299.508 22.6341 301.025C22.416 301.591 22.4593 302.141 22.5508 302.695L22.6161 303.065C22.6635 303.32 22.7117 303.578 22.7387 303.84C22.7934 304.37 22.4903 304.7 22.1071 304.974L21.911 305.106L21.4568 305.392L21.2394 305.542C20.7247 305.91 20.1789 306.435 19.9534 307.371C19.5572 309.009 20.2884 310.419 21.447 311.288ZM19.0286 314.357C19.462 314.357 19.8776 314.185 20.184 313.879C20.4905 313.572 20.6626 313.157 20.6626 312.723C20.6626 312.29 20.4905 311.874 20.184 311.568C19.8776 311.262 19.462 311.089 19.0286 311.089C18.5952 311.089 18.1796 311.262 17.8731 311.568C17.5667 311.874 17.3945 312.29 17.3945 312.723C17.3945 313.157 17.5667 313.572 17.8731 313.879C18.1796 314.185 18.5952 314.357 19.0286 314.357ZM30.0584 313.54C30.2751 313.54 30.4829 313.454 30.6361 313.301C30.7893 313.148 30.8754 312.94 30.8754 312.723C30.8754 312.507 30.7893 312.299 30.6361 312.146C30.4829 311.992 30.2751 311.906 30.0584 311.906C29.8417 311.906 29.6339 311.992 29.4807 312.146C29.3274 312.299 29.2414 312.507 29.2414 312.723C29.2414 312.94 29.3274 313.148 29.4807 313.301C29.6339 313.454 29.8417 313.54 30.0584 313.54ZM22.7052 315.583C22.8661 315.583 23.0255 315.551 23.1742 315.49C23.3229 315.428 23.458 315.338 23.5718 315.224C23.6856 315.11 23.7758 314.975 23.8374 314.826C23.899 314.678 23.9307 314.518 23.9307 314.357C23.9307 314.197 23.899 314.037 23.8374 313.888C23.7758 313.74 23.6856 313.605 23.5718 313.491C23.458 313.377 23.3229 313.287 23.1742 313.225C23.0255 313.164 22.8661 313.132 22.7052 313.132C22.3801 313.132 22.0684 313.261 21.8386 313.491C21.6088 313.721 21.4796 314.032 21.4796 314.357C21.4796 314.683 21.6088 314.994 21.8386 315.224C22.0684 315.454 22.3801 315.583 22.7052 315.583ZM26.7903 315.583C26.9512 315.583 27.1106 315.551 27.2593 315.49C27.408 315.428 27.5431 315.338 27.6569 315.224C27.7707 315.11 27.8609 314.975 27.9225 314.826C27.9841 314.678 28.0158 314.518 28.0158 314.357C28.0158 314.197 27.9841 314.037 27.9225 313.888C27.8609 313.74 27.7707 313.605 27.6569 313.491C27.5431 313.377 27.408 313.287 27.2593 313.225C27.1106 313.164 26.9512 313.132 26.7903 313.132C26.4653 313.132 26.1535 313.261 25.9237 313.491C25.6939 313.721 25.5648 314.032 25.5648 314.357C25.5648 314.683 25.6939 314.994 25.9237 315.224C26.1535 315.454 26.4653 315.583 26.7903 315.583Z" fill="#92C6FF"/>
<path d="M21.447 783.287C22.5883 784.142 24.1856 784.521 25.7347 784.201C28.8092 783.564 30.4122 781.104 30.4653 778.041C30.5094 775.551 28.9293 772.485 26.5256 771.494C25.0876 770.901 23.2199 771.507 22.6341 773.024C22.416 773.591 22.4593 774.14 22.5508 774.694L22.6161 775.064C22.6635 775.319 22.7117 775.578 22.7387 775.839C22.7934 776.369 22.4903 776.699 22.1071 776.973L21.911 777.105L21.4568 777.391L21.2394 777.541C20.7247 777.909 20.1789 778.434 19.9534 779.37C19.5572 781.008 20.2884 782.418 21.447 783.287ZM19.0286 786.356C19.462 786.356 19.8776 786.184 20.184 785.878C20.4905 785.571 20.6626 785.156 20.6626 784.722C20.6626 784.289 20.4905 783.873 20.184 783.567C19.8776 783.261 19.462 783.088 19.0286 783.088C18.5952 783.088 18.1796 783.261 17.8731 783.567C17.5667 783.873 17.3945 784.289 17.3945 784.722C17.3945 785.156 17.5667 785.571 17.8731 785.878C18.1796 786.184 18.5952 786.356 19.0286 786.356ZM30.0584 785.539C30.2751 785.539 30.4829 785.453 30.6361 785.3C30.7893 785.147 30.8754 784.939 30.8754 784.722C30.8754 784.506 30.7893 784.298 30.6361 784.145C30.4829 783.992 30.2751 783.905 30.0584 783.905C29.8417 783.905 29.6339 783.992 29.4807 784.145C29.3274 784.298 29.2414 784.506 29.2414 784.722C29.2414 784.939 29.3274 785.147 29.4807 785.3C29.6339 785.453 29.8417 785.539 30.0584 785.539ZM22.7052 787.582C22.8661 787.582 23.0255 787.55 23.1742 787.489C23.3229 787.427 23.458 787.337 23.5718 787.223C23.6856 787.109 23.7758 786.974 23.8374 786.825C23.899 786.677 23.9307 786.517 23.9307 786.356C23.9307 786.196 23.899 786.036 23.8374 785.888C23.7758 785.739 23.6856 785.604 23.5718 785.49C23.458 785.376 23.3229 785.286 23.1742 785.224C23.0255 785.163 22.8661 785.131 22.7052 785.131C22.3801 785.131 22.0684 785.26 21.8386 785.49C21.6088 785.72 21.4796 786.031 21.4796 786.356C21.4796 786.682 21.6088 786.993 21.8386 787.223C22.0684 787.453 22.3801 787.582 22.7052 787.582ZM26.7903 787.582C26.9512 787.582 27.1106 787.55 27.2593 787.489C27.408 787.427 27.5431 787.337 27.6569 787.223C27.7707 787.109 27.8609 786.974 27.9225 786.825C27.9841 786.677 28.0158 786.517 28.0158 786.356C28.0158 786.196 27.9841 786.036 27.9225 785.888C27.8609 785.739 27.7707 785.604 27.6569 785.49C27.5431 785.376 27.408 785.286 27.2593 785.224C27.1106 785.163 26.9512 785.131 26.7903 785.131C26.4653 785.131 26.1535 785.26 25.9237 785.49C25.6939 785.72 25.5648 786.031 25.5648 786.356C25.5648 786.682 25.6939 786.993 25.9237 787.223C26.1535 787.453 26.4653 787.582 26.7903 787.582Z" fill="#92C6FF"/>
<path d="M21.447 1255.29C22.5883 1256.14 24.1856 1256.52 25.7347 1256.2C28.8092 1255.56 30.4122 1253.1 30.4653 1250.04C30.5094 1247.55 28.9293 1244.49 26.5256 1243.49C25.0876 1242.9 23.2199 1243.51 22.6341 1245.02C22.416 1245.59 22.4593 1246.14 22.5508 1246.69L22.6161 1247.06C22.6635 1247.32 22.7117 1247.58 22.7387 1247.84C22.7934 1248.37 22.4903 1248.7 22.1071 1248.97L21.911 1249.11L21.4568 1249.39L21.2394 1249.54C20.7247 1249.91 20.1789 1250.43 19.9534 1251.37C19.5572 1253.01 20.2884 1254.42 21.447 1255.29ZM19.0286 1258.36C19.462 1258.36 19.8776 1258.18 20.184 1257.88C20.4905 1257.57 20.6626 1257.16 20.6626 1256.72C20.6626 1256.29 20.4905 1255.87 20.184 1255.57C19.8776 1255.26 19.462 1255.09 19.0286 1255.09C18.5952 1255.09 18.1796 1255.26 17.8731 1255.57C17.5667 1255.87 17.3945 1256.29 17.3945 1256.72C17.3945 1257.16 17.5667 1257.57 17.8731 1257.88C18.1796 1258.18 18.5952 1258.36 19.0286 1258.36ZM30.0584 1257.54C30.2751 1257.54 30.4829 1257.45 30.6361 1257.3C30.7893 1257.15 30.8754 1256.94 30.8754 1256.72C30.8754 1256.51 30.7893 1256.3 30.6361 1256.14C30.4829 1255.99 30.2751 1255.91 30.0584 1255.91C29.8417 1255.91 29.6339 1255.99 29.4807 1256.14C29.3274 1256.3 29.2414 1256.51 29.2414 1256.72C29.2414 1256.94 29.3274 1257.15 29.4807 1257.3C29.6339 1257.45 29.8417 1257.54 30.0584 1257.54ZM22.7052 1259.58C22.8661 1259.58 23.0255 1259.55 23.1742 1259.49C23.3229 1259.43 23.458 1259.34 23.5718 1259.22C23.6856 1259.11 23.7758 1258.97 23.8374 1258.83C23.899 1258.68 23.9307 1258.52 23.9307 1258.36C23.9307 1258.2 23.899 1258.04 23.8374 1257.89C23.7758 1257.74 23.6856 1257.6 23.5718 1257.49C23.458 1257.38 23.3229 1257.29 23.1742 1257.22C23.0255 1257.16 22.8661 1257.13 22.7052 1257.13C22.3801 1257.13 22.0684 1257.26 21.8386 1257.49C21.6088 1257.72 21.4796 1258.03 21.4796 1258.36C21.4796 1258.68 21.6088 1258.99 21.8386 1259.22C22.0684 1259.45 22.3801 1259.58 22.7052 1259.58ZM26.7903 1259.58C26.9512 1259.58 27.1106 1259.55 27.2593 1259.49C27.408 1259.43 27.5431 1259.34 27.6569 1259.22C27.7707 1259.11 27.8609 1258.97 27.9225 1258.83C27.9841 1258.68 28.0158 1258.52 28.0158 1258.36C28.0158 1258.2 27.9841 1258.04 27.9225 1257.89C27.8609 1257.74 27.7707 1257.6 27.6569 1257.49C27.5431 1257.38 27.408 1257.29 27.2593 1257.22C27.1106 1257.16 26.9512 1257.13 26.7903 1257.13C26.4653 1257.13 26.1535 1257.26 25.9237 1257.49C25.6939 1257.72 25.5648 1258.03 25.5648 1258.36C25.5648 1258.68 25.6939 1258.99 25.9237 1259.22C26.1535 1259.45 26.4653 1259.58 26.7903 1259.58Z" fill="#92C6FF"/>
<path d="M21.447 192.288C22.5883 193.143 24.1856 193.522 25.7347 193.202C28.8092 192.565 30.4122 190.105 30.4653 187.042C30.5094 184.552 28.9293 181.486 26.5256 180.495C25.0876 179.902 23.2199 180.508 22.6341 182.025C22.416 182.591 22.4593 183.141 22.5508 183.695L22.6161 184.065C22.6635 184.32 22.7117 184.578 22.7387 184.84C22.7934 185.37 22.4903 185.7 22.1071 185.974L21.911 186.106L21.4568 186.392L21.2394 186.542C20.7247 186.91 20.1789 187.435 19.9534 188.371C19.5572 190.009 20.2884 191.419 21.447 192.288ZM19.0286 195.357C19.462 195.357 19.8776 195.185 20.184 194.879C20.4905 194.572 20.6626 194.157 20.6626 193.723C20.6626 193.29 20.4905 192.874 20.184 192.568C19.8776 192.262 19.462 192.089 19.0286 192.089C18.5952 192.089 18.1796 192.262 17.8731 192.568C17.5667 192.874 17.3945 193.29 17.3945 193.723C17.3945 194.157 17.5667 194.572 17.8731 194.879C18.1796 195.185 18.5952 195.357 19.0286 195.357ZM30.0584 194.54C30.2751 194.54 30.4829 194.454 30.6361 194.301C30.7893 194.148 30.8754 193.94 30.8754 193.723C30.8754 193.507 30.7893 193.299 30.6361 193.146C30.4829 192.992 30.2751 192.906 30.0584 192.906C29.8417 192.906 29.6339 192.992 29.4807 193.146C29.3274 193.299 29.2414 193.507 29.2414 193.723C29.2414 193.94 29.3274 194.148 29.4807 194.301C29.6339 194.454 29.8417 194.54 30.0584 194.54ZM22.7052 196.583C22.8661 196.583 23.0255 196.551 23.1742 196.49C23.3229 196.428 23.458 196.338 23.5718 196.224C23.6856 196.11 23.7758 195.975 23.8374 195.826C23.899 195.678 23.9307 195.518 23.9307 195.357C23.9307 195.197 23.899 195.037 23.8374 194.888C23.7758 194.74 23.6856 194.605 23.5718 194.491C23.458 194.377 23.3229 194.287 23.1742 194.225C23.0255 194.164 22.8661 194.132 22.7052 194.132C22.3801 194.132 22.0684 194.261 21.8386 194.491C21.6088 194.721 21.4796 195.032 21.4796 195.357C21.4796 195.683 21.6088 195.994 21.8386 196.224C22.0684 196.454 22.3801 196.583 22.7052 196.583ZM26.7903 196.583C26.9512 196.583 27.1106 196.551 27.2593 196.49C27.408 196.428 27.5431 196.338 27.6569 196.224C27.7707 196.11 27.8609 195.975 27.9225 195.826C27.9841 195.678 28.0158 195.518 28.0158 195.357C28.0158 195.197 27.9841 195.037 27.9225 194.888C27.8609 194.74 27.7707 194.605 27.6569 194.491C27.5431 194.377 27.408 194.287 27.2593 194.225C27.1106 194.164 26.9512 194.132 26.7903 194.132C26.4653 194.132 26.1535 194.261 25.9237 194.491C25.6939 194.721 25.5648 195.032 25.5648 195.357C25.5648 195.683 25.6939 195.994 25.9237 196.224C26.1535 196.454 26.4653 196.583 26.7903 196.583Z" fill="#92C6FF"/>
<path d="M21.447 664.287C22.5883 665.142 24.1856 665.521 25.7347 665.201C28.8092 664.564 30.4122 662.104 30.4653 659.041C30.5094 656.551 28.9293 653.485 26.5256 652.494C25.0876 651.901 23.2199 652.507 22.6341 654.024C22.416 654.591 22.4593 655.14 22.5508 655.694L22.6161 656.064C22.6635 656.319 22.7117 656.578 22.7387 656.839C22.7934 657.369 22.4903 657.699 22.1071 657.973L21.911 658.105L21.4568 658.391L21.2394 658.541C20.7247 658.909 20.1789 659.434 19.9534 660.37C19.5572 662.008 20.2884 663.418 21.447 664.287ZM19.0286 667.356C19.462 667.356 19.8776 667.184 20.184 666.878C20.4905 666.571 20.6626 666.156 20.6626 665.722C20.6626 665.289 20.4905 664.873 20.184 664.567C19.8776 664.261 19.462 664.088 19.0286 664.088C18.5952 664.088 18.1796 664.261 17.8731 664.567C17.5667 664.873 17.3945 665.289 17.3945 665.722C17.3945 666.156 17.5667 666.571 17.8731 666.878C18.1796 667.184 18.5952 667.356 19.0286 667.356ZM30.0584 666.539C30.2751 666.539 30.4829 666.453 30.6361 666.3C30.7893 666.147 30.8754 665.939 30.8754 665.722C30.8754 665.506 30.7893 665.298 30.6361 665.145C30.4829 664.992 30.2751 664.905 30.0584 664.905C29.8417 664.905 29.6339 664.992 29.4807 665.145C29.3274 665.298 29.2414 665.506 29.2414 665.722C29.2414 665.939 29.3274 666.147 29.4807 666.3C29.6339 666.453 29.8417 666.539 30.0584 666.539ZM22.7052 668.582C22.8661 668.582 23.0255 668.55 23.1742 668.489C23.3229 668.427 23.458 668.337 23.5718 668.223C23.6856 668.109 23.7758 667.974 23.8374 667.825C23.899 667.677 23.9307 667.517 23.9307 667.356C23.9307 667.196 23.899 667.036 23.8374 666.888C23.7758 666.739 23.6856 666.604 23.5718 666.49C23.458 666.376 23.3229 666.286 23.1742 666.224C23.0255 666.163 22.8661 666.131 22.7052 666.131C22.3801 666.131 22.0684 666.26 21.8386 666.49C21.6088 666.72 21.4796 667.031 21.4796 667.356C21.4796 667.682 21.6088 667.993 21.8386 668.223C22.0684 668.453 22.3801 668.582 22.7052 668.582ZM26.7903 668.582C26.9512 668.582 27.1106 668.55 27.2593 668.489C27.408 668.427 27.5431 668.337 27.6569 668.223C27.7707 668.109 27.8609 667.974 27.9225 667.825C27.9841 667.677 28.0158 667.517 28.0158 667.356C28.0158 667.196 27.9841 667.036 27.9225 666.888C27.8609 666.739 27.7707 666.604 27.6569 666.49C27.5431 666.376 27.408 666.286 27.2593 666.224C27.1106 666.163 26.9512 666.131 26.7903 666.131C26.4653 666.131 26.1535 666.26 25.9237 666.49C25.6939 666.72 25.5648 667.031 25.5648 667.356C25.5648 667.682 25.6939 667.993 25.9237 668.223C26.1535 668.453 26.4653 668.582 26.7903 668.582Z" fill="#92C6FF"/>
<path d="M21.447 1136.29C22.5883 1137.14 24.1856 1137.52 25.7347 1137.2C28.8092 1136.56 30.4122 1134.1 30.4653 1131.04C30.5094 1128.55 28.9293 1125.49 26.5256 1124.49C25.0876 1123.9 23.2199 1124.51 22.6341 1126.02C22.416 1126.59 22.4593 1127.14 22.5508 1127.69L22.6161 1128.06C22.6635 1128.32 22.7117 1128.58 22.7387 1128.84C22.7934 1129.37 22.4903 1129.7 22.1071 1129.97L21.911 1130.11L21.4568 1130.39L21.2394 1130.54C20.7247 1130.91 20.1789 1131.43 19.9534 1132.37C19.5572 1134.01 20.2884 1135.42 21.447 1136.29ZM19.0286 1139.36C19.462 1139.36 19.8776 1139.18 20.184 1138.88C20.4905 1138.57 20.6626 1138.16 20.6626 1137.72C20.6626 1137.29 20.4905 1136.87 20.184 1136.57C19.8776 1136.26 19.462 1136.09 19.0286 1136.09C18.5952 1136.09 18.1796 1136.26 17.8731 1136.57C17.5667 1136.87 17.3945 1137.29 17.3945 1137.72C17.3945 1138.16 17.5667 1138.57 17.8731 1138.88C18.1796 1139.18 18.5952 1139.36 19.0286 1139.36ZM30.0584 1138.54C30.2751 1138.54 30.4829 1138.45 30.6361 1138.3C30.7893 1138.15 30.8754 1137.94 30.8754 1137.72C30.8754 1137.51 30.7893 1137.3 30.6361 1137.14C30.4829 1136.99 30.2751 1136.91 30.0584 1136.91C29.8417 1136.91 29.6339 1136.99 29.4807 1137.14C29.3274 1137.3 29.2414 1137.51 29.2414 1137.72C29.2414 1137.94 29.3274 1138.15 29.4807 1138.3C29.6339 1138.45 29.8417 1138.54 30.0584 1138.54ZM22.7052 1140.58C22.8661 1140.58 23.0255 1140.55 23.1742 1140.49C23.3229 1140.43 23.458 1140.34 23.5718 1140.22C23.6856 1140.11 23.7758 1139.97 23.8374 1139.83C23.899 1139.68 23.9307 1139.52 23.9307 1139.36C23.9307 1139.2 23.899 1139.04 23.8374 1138.89C23.7758 1138.74 23.6856 1138.6 23.5718 1138.49C23.458 1138.38 23.3229 1138.29 23.1742 1138.22C23.0255 1138.16 22.8661 1138.13 22.7052 1138.13C22.3801 1138.13 22.0684 1138.26 21.8386 1138.49C21.6088 1138.72 21.4796 1139.03 21.4796 1139.36C21.4796 1139.68 21.6088 1139.99 21.8386 1140.22C22.0684 1140.45 22.3801 1140.58 22.7052 1140.58ZM26.7903 1140.58C26.9512 1140.58 27.1106 1140.55 27.2593 1140.49C27.408 1140.43 27.5431 1140.34 27.6569 1140.22C27.7707 1140.11 27.8609 1139.97 27.9225 1139.83C27.9841 1139.68 28.0158 1139.52 28.0158 1139.36C28.0158 1139.2 27.9841 1139.04 27.9225 1138.89C27.8609 1138.74 27.7707 1138.6 27.6569 1138.49C27.5431 1138.38 27.408 1138.29 27.2593 1138.22C27.1106 1138.16 26.9512 1138.13 26.7903 1138.13C26.4653 1138.13 26.1535 1138.26 25.9237 1138.49C25.6939 1138.72 25.5648 1139.03 25.5648 1139.36C25.5648 1139.68 25.6939 1139.99 25.9237 1140.22C26.1535 1140.45 26.4653 1140.58 26.7903 1140.58Z" fill="#92C6FF"/>
<path d="M21.447 430.288C22.5883 431.143 24.1856 431.522 25.7347 431.202C28.8092 430.565 30.4122 428.105 30.4653 425.042C30.5094 422.552 28.9293 419.486 26.5256 418.495C25.0876 417.902 23.2199 418.508 22.6341 420.025C22.416 420.591 22.4593 421.141 22.5508 421.695L22.6161 422.065C22.6635 422.32 22.7117 422.578 22.7387 422.84C22.7934 423.37 22.4903 423.7 22.1071 423.974L21.911 424.106L21.4568 424.392L21.2394 424.542C20.7247 424.91 20.1789 425.435 19.9534 426.371C19.5572 428.009 20.2884 429.419 21.447 430.288ZM19.0286 433.357C19.462 433.357 19.8776 433.185 20.184 432.879C20.4905 432.572 20.6626 432.157 20.6626 431.723C20.6626 431.29 20.4905 430.874 20.184 430.568C19.8776 430.262 19.462 430.089 19.0286 430.089C18.5952 430.089 18.1796 430.262 17.8731 430.568C17.5667 430.874 17.3945 431.29 17.3945 431.723C17.3945 432.157 17.5667 432.572 17.8731 432.879C18.1796 433.185 18.5952 433.357 19.0286 433.357ZM30.0584 432.54C30.2751 432.54 30.4829 432.454 30.6361 432.301C30.7893 432.148 30.8754 431.94 30.8754 431.723C30.8754 431.507 30.7893 431.299 30.6361 431.146C30.4829 430.992 30.2751 430.906 30.0584 430.906C29.8417 430.906 29.6339 430.992 29.4807 431.146C29.3274 431.299 29.2414 431.507 29.2414 431.723C29.2414 431.94 29.3274 432.148 29.4807 432.301C29.6339 432.454 29.8417 432.54 30.0584 432.54ZM22.7052 434.583C22.8661 434.583 23.0255 434.551 23.1742 434.49C23.3229 434.428 23.458 434.338 23.5718 434.224C23.6856 434.11 23.7758 433.975 23.8374 433.826C23.899 433.678 23.9307 433.518 23.9307 433.357C23.9307 433.197 23.899 433.037 23.8374 432.888C23.7758 432.74 23.6856 432.605 23.5718 432.491C23.458 432.377 23.3229 432.287 23.1742 432.225C23.0255 432.164 22.8661 432.132 22.7052 432.132C22.3801 432.132 22.0684 432.261 21.8386 432.491C21.6088 432.721 21.4796 433.032 21.4796 433.357C21.4796 433.683 21.6088 433.994 21.8386 434.224C22.0684 434.454 22.3801 434.583 22.7052 434.583ZM26.7903 434.583C26.9512 434.583 27.1106 434.551 27.2593 434.49C27.408 434.428 27.5431 434.338 27.6569 434.224C27.7707 434.11 27.8609 433.975 27.9225 433.826C27.9841 433.678 28.0158 433.518 28.0158 433.357C28.0158 433.197 27.9841 433.037 27.9225 432.888C27.8609 432.74 27.7707 432.605 27.6569 432.491C27.5431 432.377 27.408 432.287 27.2593 432.225C27.1106 432.164 26.9512 432.132 26.7903 432.132C26.4653 432.132 26.1535 432.261 25.9237 432.491C25.6939 432.721 25.5648 433.032 25.5648 433.357C25.5648 433.683 25.6939 433.994 25.9237 434.224C26.1535 434.454 26.4653 434.583 26.7903 434.583Z" fill="#92C6FF"/>
<path d="M21.447 902.287C22.5883 903.142 24.1856 903.521 25.7347 903.201C28.8092 902.564 30.4122 900.104 30.4653 897.041C30.5094 894.551 28.9293 891.485 26.5256 890.494C25.0876 889.901 23.2199 890.507 22.6341 892.024C22.416 892.591 22.4593 893.14 22.5508 893.694L22.6161 894.064C22.6635 894.319 22.7117 894.578 22.7387 894.839C22.7934 895.369 22.4903 895.699 22.1071 895.973L21.911 896.105L21.4568 896.391L21.2394 896.541C20.7247 896.909 20.1789 897.434 19.9534 898.37C19.5572 900.008 20.2884 901.418 21.447 902.287ZM19.0286 905.356C19.462 905.356 19.8776 905.184 20.184 904.878C20.4905 904.571 20.6626 904.156 20.6626 903.722C20.6626 903.289 20.4905 902.873 20.184 902.567C19.8776 902.261 19.462 902.088 19.0286 902.088C18.5952 902.088 18.1796 902.261 17.8731 902.567C17.5667 902.873 17.3945 903.289 17.3945 903.722C17.3945 904.156 17.5667 904.571 17.8731 904.878C18.1796 905.184 18.5952 905.356 19.0286 905.356ZM30.0584 904.539C30.2751 904.539 30.4829 904.453 30.6361 904.3C30.7893 904.147 30.8754 903.939 30.8754 903.722C30.8754 903.506 30.7893 903.298 30.6361 903.145C30.4829 902.992 30.2751 902.905 30.0584 902.905C29.8417 902.905 29.6339 902.992 29.4807 903.145C29.3274 903.298 29.2414 903.506 29.2414 903.722C29.2414 903.939 29.3274 904.147 29.4807 904.3C29.6339 904.453 29.8417 904.539 30.0584 904.539ZM22.7052 906.582C22.8661 906.582 23.0255 906.55 23.1742 906.489C23.3229 906.427 23.458 906.337 23.5718 906.223C23.6856 906.109 23.7758 905.974 23.8374 905.825C23.899 905.677 23.9307 905.517 23.9307 905.356C23.9307 905.196 23.899 905.036 23.8374 904.888C23.7758 904.739 23.6856 904.604 23.5718 904.49C23.458 904.376 23.3229 904.286 23.1742 904.224C23.0255 904.163 22.8661 904.131 22.7052 904.131C22.3801 904.131 22.0684 904.26 21.8386 904.49C21.6088 904.72 21.4796 905.031 21.4796 905.356C21.4796 905.682 21.6088 905.993 21.8386 906.223C22.0684 906.453 22.3801 906.582 22.7052 906.582ZM26.7903 906.582C26.9512 906.582 27.1106 906.55 27.2593 906.489C27.408 906.427 27.5431 906.337 27.6569 906.223C27.7707 906.109 27.8609 905.974 27.9225 905.825C27.9841 905.677 28.0158 905.517 28.0158 905.356C28.0158 905.196 27.9841 905.036 27.9225 904.888C27.8609 904.739 27.7707 904.604 27.6569 904.49C27.5431 904.376 27.408 904.286 27.2593 904.224C27.1106 904.163 26.9512 904.131 26.7903 904.131C26.4653 904.131 26.1535 904.26 25.9237 904.49C25.6939 904.72 25.5648 905.031 25.5648 905.356C25.5648 905.682 25.6939 905.993 25.9237 906.223C26.1535 906.453 26.4653 906.582 26.7903 906.582Z" fill="#92C6FF"/>
<path d="M21.447 1374.29C22.5883 1375.14 24.1856 1375.52 25.7347 1375.2C28.8092 1374.56 30.4122 1372.1 30.4653 1369.04C30.5094 1366.55 28.9293 1363.49 26.5256 1362.49C25.0876 1361.9 23.2199 1362.51 22.6341 1364.02C22.416 1364.59 22.4593 1365.14 22.5508 1365.69L22.6161 1366.06C22.6635 1366.32 22.7117 1366.58 22.7387 1366.84C22.7934 1367.37 22.4903 1367.7 22.1071 1367.97L21.911 1368.11L21.4568 1368.39L21.2394 1368.54C20.7247 1368.91 20.1789 1369.43 19.9534 1370.37C19.5572 1372.01 20.2884 1373.42 21.447 1374.29ZM19.0286 1377.36C19.462 1377.36 19.8776 1377.18 20.184 1376.88C20.4905 1376.57 20.6626 1376.16 20.6626 1375.72C20.6626 1375.29 20.4905 1374.87 20.184 1374.57C19.8776 1374.26 19.462 1374.09 19.0286 1374.09C18.5952 1374.09 18.1796 1374.26 17.8731 1374.57C17.5667 1374.87 17.3945 1375.29 17.3945 1375.72C17.3945 1376.16 17.5667 1376.57 17.8731 1376.88C18.1796 1377.18 18.5952 1377.36 19.0286 1377.36ZM30.0584 1376.54C30.2751 1376.54 30.4829 1376.45 30.6361 1376.3C30.7893 1376.15 30.8754 1375.94 30.8754 1375.72C30.8754 1375.51 30.7893 1375.3 30.6361 1375.14C30.4829 1374.99 30.2751 1374.91 30.0584 1374.91C29.8417 1374.91 29.6339 1374.99 29.4807 1375.14C29.3274 1375.3 29.2414 1375.51 29.2414 1375.72C29.2414 1375.94 29.3274 1376.15 29.4807 1376.3C29.6339 1376.45 29.8417 1376.54 30.0584 1376.54ZM22.7052 1378.58C22.8661 1378.58 23.0255 1378.55 23.1742 1378.49C23.3229 1378.43 23.458 1378.34 23.5718 1378.22C23.6856 1378.11 23.7758 1377.97 23.8374 1377.83C23.899 1377.68 23.9307 1377.52 23.9307 1377.36C23.9307 1377.2 23.899 1377.04 23.8374 1376.89C23.7758 1376.74 23.6856 1376.6 23.5718 1376.49C23.458 1376.38 23.3229 1376.29 23.1742 1376.22C23.0255 1376.16 22.8661 1376.13 22.7052 1376.13C22.3801 1376.13 22.0684 1376.26 21.8386 1376.49C21.6088 1376.72 21.4796 1377.03 21.4796 1377.36C21.4796 1377.68 21.6088 1377.99 21.8386 1378.22C22.0684 1378.45 22.3801 1378.58 22.7052 1378.58ZM26.7903 1378.58C26.9512 1378.58 27.1106 1378.55 27.2593 1378.49C27.408 1378.43 27.5431 1378.34 27.6569 1378.22C27.7707 1378.11 27.8609 1377.97 27.9225 1377.83C27.9841 1377.68 28.0158 1377.52 28.0158 1377.36C28.0158 1377.2 27.9841 1377.04 27.9225 1376.89C27.8609 1376.74 27.7707 1376.6 27.6569 1376.49C27.5431 1376.38 27.408 1376.29 27.2593 1376.22C27.1106 1376.16 26.9512 1376.13 26.7903 1376.13C26.4653 1376.13 26.1535 1376.26 25.9237 1376.49C25.6939 1376.72 25.5648 1377.03 25.5648 1377.36C25.5648 1377.68 25.6939 1377.99 25.9237 1378.22C26.1535 1378.45 26.4653 1378.58 26.7903 1378.58Z" fill="#92C6FF"/>
</svg>
