<svg width="414" height="600" viewBox="0 0 414 600" fill="none" xmlns="http://www.w3.org/2000/svg">
<path d="M0 126.717V118.758C1.80459 111.732 5.58879 105.488 10.8264 100.895C11.3189 100.439 11.7713 99.1339 11.52 98.7207C8.7958 93.7412 9.84124 88.6529 10.947 83.4995C12.2136 77.6393 12.0829 71.9748 9.0471 66.68C8.31446 65.4747 7.90583 64.0731 7.86678 62.6313C7.82773 61.1895 8.15981 59.7644 8.82596 58.5148C10.2685 55.5316 11.8487 52.6287 13.5606 49.817C14.2599 48.6523 15.2319 47.7087 16.3779 47.0823C17.5239 46.4559 18.8028 46.169 20.0846 46.2509C21.6755 46.1978 23.2627 46.0526 24.8393 45.816L34.0774 44.9788C34.7107 41.641 35.4043 37.553 36.2688 33.5085C37.3947 28.2789 39.7067 23.7234 43.9689 20.7879C44.5726 20.3754 45.2506 20.1068 45.9578 19.9999C46.665 19.8931 47.3852 19.9504 48.0703 20.1682C53.9006 23.332 59.1278 22.0708 63.9127 17.9937C68.9389 13.6448 73.7339 9.10013 78.5389 4.50114C82.9921 0.23919 83.0021 0.152213 87.9479 3.53351C91.9688 6.2842 95.839 9.26322 101.187 8.73047C103.117 8.54564 105.439 10.2417 107.218 11.6116C109.711 13.5143 109.279 16.2759 106.525 17.885C106.083 18.0604 105.661 18.2902 105.268 18.5699C104.393 19.418 103.589 20.353 102.755 21.2445C103.7 22.1272 104.708 22.927 105.771 23.6364C107.781 24.7237 109.862 25.5717 111.802 26.6807C113.481 27.6266 113.963 29.0726 113.622 31.2688C113.327 33.0499 113.653 34.8859 114.536 36.4223C116.74 39.4728 118.121 43.1225 118.527 46.9684C118.949 50.7303 121.593 52.3176 124.739 50.665C127.423 49.2516 129.625 46.8054 132.098 44.9027C133.18 43.8981 134.429 43.1235 135.777 42.6195C137.182 42.3921 138.616 42.5186 139.969 42.9892C141.768 43.5002 142.562 43.0544 142.793 40.9669C143.095 38.238 143.889 35.5308 144.07 32.8344C144.512 26.2132 153.74 21.8642 158.254 23.93C158.956 24.259 159.581 24.7525 160.086 25.3749C160.59 25.9972 160.96 26.7329 161.169 27.5287C161.722 32.5409 157.962 37.6074 153.328 38.7163C152.132 38.999 150.886 39.0969 149.73 39.4883C149.336 39.5779 148.963 39.7539 148.635 40.0053C148.306 40.2568 148.029 40.5783 147.82 40.9502C147.611 41.322 147.474 41.7363 147.419 42.1674C147.363 42.5985 147.39 43.0373 147.498 43.4567C147.709 45.0875 147.166 46.8053 147.237 48.4797C147.297 49.8496 147.377 51.8827 148.151 52.4155C148.773 52.7634 149.462 52.945 150.162 52.945C150.861 52.945 151.551 52.7634 152.172 52.4155C154.374 50.5889 156.766 48.4797 157.942 45.8921C160.063 41.2496 163.35 38.5098 167.442 36.3679C170.669 34.6718 171.855 34.7262 174.478 37.3899C175.876 38.7816 177.303 40.1515 179.183 41.9889C179.645 39.597 179.957 38.0314 180.188 36.4549C181.575 28.5725 186.803 23.843 194.261 23.7234C194.637 23.7123 195.005 23.6082 195.337 23.419C199.468 21.1358 203.489 18.8091 205.711 13.9601C207.611 9.80684 210.054 8.66524 214.235 9.39369C215.723 9.65462 217.251 10.0025 218.699 10.1982C222.846 10.9013 227.086 9.85433 230.54 7.27358C233.837 4.77295 237.225 2.41366 240.593 0H243.99C245.468 2.28319 247.006 3.16385 250.022 3.2617C256.706 3.40304 260.627 3.2617 262.537 13.0468C262.748 14.134 263.874 15.0908 264.708 15.9606C267.06 18.4177 269.553 20.7227 271.825 23.245C272.924 24.7471 273.902 26.3475 274.75 28.0288C275.655 25.8544 276.761 24.4953 276.761 23.158C276.419 16.2324 279.847 11.1224 283.496 6.15374C284.059 5.37093 286.2 4.85993 286.793 5.36006C291.417 9.26322 296.001 13.2969 296.775 20.2769C296.85 21.2865 297.236 22.2398 297.871 22.9841C300.766 25.6804 303.802 28.2137 306.697 30.7361C309.964 28.4746 309.974 25.5608 309.019 22.4296C308.396 20.3856 308.546 18.6895 310.688 18.0807C316.126 16.439 321.554 14.6668 327.083 13.4926C328.025 13.3757 328.98 13.4857 329.878 13.8146C330.777 14.1436 331.597 14.6833 332.28 15.3952C337.839 22.3209 334.723 33.5955 327.405 35.8895C327.203 39.2273 327.043 42.326 326.811 45.4137C326.51 49.4799 327.988 50.752 331.566 49.7626C334.616 48.7956 337.727 48.0689 340.875 47.5882C342.091 47.4359 343.448 48.534 344.745 49.0668C344.285 50.6277 343.721 52.1502 343.056 53.6223C342.219 54.9709 341.277 56.2402 340.241 57.4167L340.794 58.2539C342.021 57.9386 343.267 57.6777 344.473 57.2971C348.233 56.1121 349.027 56.6992 349.299 60.8524C349.419 62.7659 349.66 64.6795 349.922 67.2236C351.872 65.4623 353.159 64.2989 354.455 63.1465C355.752 61.994 357.059 60.7872 358.396 59.6564C362.105 56.5361 364.317 57.3189 365.432 62.331C365.935 64.7012 365.955 67.1801 366.287 69.5937C366.398 70.4418 366.558 71.5725 367.091 72.0074C369.202 73.7035 371.434 75.2691 373.696 76.7042C374.603 77.3565 375.682 77.6722 376.77 77.6035C377.858 77.5349 378.896 77.0857 379.727 76.3237C385.256 71.9562 391.985 69.7343 398.826 70.0178C404.657 70.2026 410.497 70.3113 416.338 70.4635C419.294 70.5259 422.11 71.8417 424.178 74.1275C426.802 76.8673 428.35 79.9877 428.199 84.13C427.744 91.6917 428.864 99.2674 431.476 106.299C432.351 108.538 433.045 111.409 432.482 113.627C431.024 119.704 431.195 126.804 425.053 130.544C424.942 130.62 424.942 130.903 424.852 131.24C429.064 136.002 431.104 141.949 432.21 148.375C432.753 151.473 433.155 154.615 433.879 157.67C434.378 159.383 434.432 161.21 434.035 162.953C433.637 164.697 432.805 166.288 431.627 167.553C429.968 169.413 429.888 170.978 432.069 172.5C435.387 174.816 437.287 178.241 438.483 182.285C439.06 184.219 439.847 186.073 440.825 187.809C442.283 190.429 442.031 192.636 439.94 194.615C437.85 196.593 435.919 198.311 433.909 200.192C432.865 201.074 432.038 202.219 431.498 203.526C430.958 204.834 430.723 206.265 430.813 207.694C431.094 212.891 430.34 213.619 426.008 216.153C423.35 217.812 420.915 219.857 418.77 222.23C418.036 223.013 417.966 225.155 418.358 226.405C418.981 228.406 429.968 233.527 431.878 233.059C432.059 233 432.237 232.931 432.411 232.853C436.432 231.494 437.317 231.939 437.779 236.419C438.412 242.464 439.93 247.758 445.59 250.455C448.475 251.825 451.259 253.717 454.275 254.423C458.262 255.123 462.3 255.418 466.338 255.304C467.716 255.217 469.029 254.644 470.077 253.673C473.093 250.977 473.093 251.129 476.239 253.434C481.477 257.217 485.87 258.413 488.935 255.304C489.972 254.195 491.271 253.417 492.69 253.056C494.109 252.696 495.593 252.766 496.977 253.26C498.011 253.621 499.12 253.646 500.167 253.333C501.213 253.02 502.153 252.382 502.868 251.499C507.16 246.704 512.77 247.943 518.077 247.943C518.543 248.044 518.956 248.331 519.233 248.748C521.465 251.738 524.209 251.009 526.974 250.031C528.984 249.335 530.874 248.53 532.844 247.856C534.467 247.264 536.213 247.188 537.874 247.639C539.535 248.09 541.042 249.049 542.213 250.4C543.312 251.52 544.321 252.738 545.229 254.043C545.784 254.932 546.556 255.637 547.459 256.08C548.362 256.524 549.361 256.688 550.345 256.554C554.105 256.25 557.894 256.261 561.644 255.804C562.848 255.575 564.088 255.724 565.216 256.235C566.344 256.746 567.313 257.596 568.007 258.685C569.807 261.262 572.028 262.784 575.325 262.099C577.718 261.599 579.346 263.284 579.718 266.057C579.919 267.774 579.899 269.514 580 271.243C580.15 273.613 581.296 274.613 583.538 274.504C587.076 274.341 587.921 275.363 588.836 278.853C589.883 282.733 591.146 286.542 592.615 290.258C593.419 292.302 593.741 293.944 592.414 295.923C591.087 297.902 590.344 300.272 588.996 302.229C584.976 308.046 585.187 313.101 590.595 317.798C592.354 319.32 592.454 321.429 591.067 323.539C590.223 324.832 589.549 326.268 588.625 327.964C593.47 328.768 596.083 331.878 597.742 336.194C598.818 338.988 600.054 341.706 601.15 344.49C601.27 344.761 601.338 345.056 601.35 345.357C601.362 345.658 601.318 345.958 601.22 346.24C599.008 349.926 601.532 352.307 603.15 354.938C604.769 357.569 606.689 360.037 607.794 362.886C608.609 364.984 609.513 365.56 611.333 365.147C618.118 363.614 623.094 366.289 626.582 372.66C627.267 373.947 628.227 375.037 629.381 375.841C630.535 376.645 631.85 377.139 633.217 377.281C634.708 377.719 636.085 378.526 637.238 379.64C640.696 382.401 643.973 385.435 647.491 388.088C649.24 389.414 650.346 390.762 650.577 393.165C650.909 396.775 651.874 400.189 655 402.287V405.962C653.27 407.746 651.422 409.392 649.471 410.887C645.842 413.279 645.45 415.692 648.376 419.139C649.883 420.879 649.682 422.401 647.622 423.488C646.229 424.111 644.798 424.631 643.339 425.043C639.318 426.413 637.036 429.315 636.825 433.969C636.735 435.795 636.735 437.644 636.524 439.459C636.373 440.742 636.273 442.286 635.519 443.178C634.242 444.798 634.423 446.113 635.117 447.885C637.218 453.245 636.614 458.192 632.885 462.617C628.763 467.499 628.784 467.662 631.789 473.49C633.156 476.143 634.071 478.861 632.955 481.938C631.719 485.341 630.693 488.863 629.236 492.157C628.08 494.756 628.733 496.506 630.322 498.463C632.262 500.91 634.342 503.454 635.508 506.357C638.132 512.88 635.388 517.066 628.814 517.501C626.098 517.629 623.403 518.066 620.772 518.806C617.445 519.806 616.64 519.686 614.801 516.359C612.227 511.695 609.925 511.499 606.94 515.979C604.738 519.24 602.828 522.817 600.908 526.297C598.988 529.776 597.41 530.461 593.872 529.145C592.002 528.449 590.173 527.634 588.333 526.851C582.694 524.448 581.638 522.176 582.925 515.805C583.397 513.836 583.603 511.803 583.538 509.771C583.126 504.334 578.16 501.866 573.898 504.574C571.425 506.139 568.55 506.955 565.856 508.205C564.764 508.596 563.766 509.242 562.931 510.097C562.069 511.304 560.959 512.277 559.688 512.937C558.418 513.598 557.022 513.928 555.613 513.902C552.597 513.978 549.581 514.87 546.324 515.435C546.998 518.055 547.621 520.175 548.093 522.328C548.566 524.481 549.038 527.068 546.676 528.591C545.528 529.24 544.202 529.418 542.942 529.092C541.682 528.766 540.573 527.959 539.82 526.818C537.669 523.22 534.794 522.393 531.115 522.47C527.436 522.546 524.762 520.567 522.892 517.033C521.475 514.646 519.941 512.341 518.298 510.129C516.66 507.651 514.82 506.694 511.794 507.564C507.944 508.651 506.768 507.411 506.276 503.019C506.165 502.008 506.276 500.953 506.125 499.964C505.914 498.757 505.502 497.594 505.21 496.506C503.2 497.354 501.601 497.909 500.114 498.681C499.793 498.855 499.513 499.104 499.294 499.411C499.075 499.718 498.922 500.074 498.847 500.453C498.917 503.715 497.048 505.041 494.555 506.074C492.062 507.107 489.72 508.249 489.529 511.619C489.338 514.989 490.463 518.142 493.379 519.893C497.138 522.165 494.112 525.166 494.163 527.786C494.163 528.395 492.504 529.406 491.499 529.613C488.748 530.138 486.271 531.736 484.536 534.104C482.802 536.473 481.932 539.447 482.09 542.464C482.09 543.638 481.085 545.725 480.23 545.878C479.044 546.149 476.742 545.443 476.4 544.519C474.902 540.398 471.645 538.995 468.429 537.267C467.122 536.564 466.063 535.419 465.413 534.005C465.251 533.327 464.853 532.743 464.303 532.374C463.752 532.005 463.091 531.881 462.458 532.026C459.09 532.265 458.728 531.678 458.125 528.069C457.813 526.144 456.838 524.34 455.833 521.545C451.812 527.438 447.389 524.688 443.348 524.133C442.905 525.111 442.369 526.036 441.75 526.895C439.136 529.754 437.839 532.776 439.739 536.778C440.544 538.463 439.548 539.474 437.87 539.55C434.17 539.724 430.501 539.8 427.234 537.375C424.983 535.712 422.982 536.375 420.71 537.865C417.488 539.899 414.128 541.666 410.658 543.149C408.256 544.054 405.809 544.816 403.33 545.432C398.505 546.943 398.515 546.954 398.846 552.281C399.409 561.142 395.328 566.046 387.226 566.948C384.462 567.374 381.788 568.319 379.325 569.742C375.535 571.765 373.374 575.559 371.514 579.527C370.288 582.137 368.498 584.333 365.674 584.105C362.367 583.844 359.492 584.801 356.456 585.975C354.124 586.877 351.43 586.834 348.937 587.062C347.065 587.292 345.181 587.397 343.297 587.377C341.146 587.377 338.995 586.997 336.834 586.779V585.833C336.18 586.399 335.577 587.345 334.823 587.453C332.431 587.801 332.501 589.628 331.958 591.552C331.308 593.525 330.2 595.285 328.741 596.662C327.334 598.076 325.424 598.913 323.715 600H319.192C317.181 598.065 315.221 595.988 313.07 594.238C311.391 592.868 309.531 591.128 307.622 590.911C304.515 590.563 301.258 591.389 301.118 586.377C296.423 582.333 291.809 578.158 286.974 574.32C285.527 573.167 283.144 573.352 281.737 572.145C276.972 568.166 271.966 565.296 265.723 565.622C265.217 565.636 264.713 565.528 264.25 565.304C263.788 565.08 263.377 564.746 263.049 564.328C261.763 561.425 260.808 558.348 259.742 555.326C259.429 554.157 259.049 553.009 258.606 551.89C256.928 548.498 257.541 546.856 260.928 545.584C267.322 543.17 273.688 540.717 280.028 538.223C280.625 537.947 281.184 537.581 281.686 537.136C281.335 533.755 281.043 531.015 280.752 528.275C280.752 527.982 280.752 527.579 280.571 527.406C277.555 524.144 279.163 521.1 280.892 518.055C283.797 512.945 284.602 507.998 281.516 502.377C280.315 500.218 279.58 497.793 279.366 495.284C279.152 492.775 279.464 490.245 280.279 487.885C281.033 485.623 279.807 484.514 278.329 483.384C270.528 477.469 262.768 471.489 257.883 462.248C257.189 460.943 256.073 459.899 255.289 458.627C254.505 457.355 253.711 457.083 252.273 457.801C244.342 461.748 236.803 462.215 230.279 453.974C227.263 457.236 225.112 455.713 222.84 452.745C221.787 451.268 220.355 450.158 218.724 449.553C217.092 448.948 215.332 448.875 213.662 449.342C209.862 450.469 206.132 451.856 202.494 453.496C202.061 453.745 201.691 454.106 201.416 454.545C201.141 454.985 200.969 455.49 200.916 456.018C201.62 463.998 198.172 468.76 191.567 471.859C186.541 474.207 182.189 474.24 177.745 470.772C174.458 468.195 174.026 468.336 171.04 471.467C168.055 474.599 165.009 477.556 160.727 477.926C157.57 478.197 155.118 479.187 153.268 482.014C152.112 483.786 150.755 483.721 149.247 482.198C147.905 480.77 146.398 479.535 144.764 478.524C139.024 475.208 133.706 471.815 130.027 465.357C127.866 461.595 122.99 459.53 119.16 457.04C117.15 455.713 115.924 454.507 116.507 451.734C116.656 450.59 116.405 449.427 115.803 448.473C114.742 446.641 113.215 445.18 111.405 444.264C109.595 443.348 107.58 443.016 105.6 443.308C101.398 443.7 97.2362 443.308 94.5422 439.329C92.4478 436.341 90.8492 432.982 89.8176 429.402C87.8071 421.792 88.4505 414.04 90.4408 406.451C91.818 401.2 90.7324 396.927 86.812 393.306C82.8915 389.686 79.2928 385.891 75.7041 381.988C75.3757 381.516 75.1606 380.963 75.0782 380.378C74.9957 379.794 75.0485 379.196 75.2317 378.64C78.5188 373.203 82.0572 367.909 85.475 362.549C88.6716 357.536 91.808 352.492 94.9745 347.469C95.6616 346.53 95.9793 345.336 95.8589 344.146C95.7385 342.955 95.1897 341.864 94.3311 341.108C92.5217 339.227 90.3102 337.847 88.4505 335.977C87.3233 334.762 86.3833 333.36 85.666 331.823C84.7211 329.942 84.2386 327.768 83.1831 325.985C82.0891 324.454 80.8858 323.018 79.5843 321.69C78.1167 319.896 78.1569 318.081 79.5039 316.156C80.9289 314.272 82.2035 312.261 83.3138 310.144C84.8015 307.024 86.822 304.958 90.079 304.295C92.4312 303.816 92.9137 302.327 91.4461 300.207C90.2096 298.402 88.8626 296.695 87.4855 295.021C85.5454 292.65 84.2687 290.15 84.4698 286.758C84.5301 285.67 83.0423 284.518 82.2583 283.398C81.7054 282.604 80.5293 281.648 80.67 281.082C81.3535 278.418 82.2683 275.777 85.3745 275.298C87.2458 275.055 89.102 274.692 90.9334 274.211C95.1252 272.982 96.6733 268.775 94.4015 264.872C93.2656 262.915 93.155 261.175 94.6628 259.316C98.7642 254.293 98.6838 249.4 93.9491 245.04C89.8761 241.43 85.6244 238.062 81.2128 234.951C79.1521 233.451 77.9056 231.918 78.9812 229.189C81.0774 223.776 81.2102 217.709 79.3531 212.195C78.0061 207.683 79.4436 203.378 81.3636 199.268C82.7408 196.343 85.3242 197.148 87.4654 196.561C87.5357 196.561 87.5659 196.398 87.6161 196.311C84.0677 192.679 84.1782 192.766 87.1537 188.08C89.0282 185.289 90.5841 182.262 91.7879 179.067C93.3661 174.479 92.2402 172.848 87.7669 171.815C78.0162 169.576 68.0141 168.662 58.5247 164.955C55.8005 163.868 54.1218 162.313 53.3075 159.573C52.8623 158.027 52.6851 156.405 52.7848 154.789C53.0562 150.44 52.3526 149.831 48.5025 151.223C47.453 151.681 46.3704 152.045 45.2657 152.31C42.0288 152.887 40.4305 151.789 39.7771 148.288C39.4783 146.283 39.3605 144.251 39.4253 142.221C39.4253 140.22 38.9025 139.177 36.8117 138.742C29.0714 137.154 21.6427 134.469 15.2293 129.37C13.6229 127.944 11.6973 127.001 9.64652 126.636C7.59579 126.272 5.49243 126.498 3.54848 127.293C2.72419 127.728 1.27665 126.956 0 126.717Z" fill="#E6ECFF"/>
</svg>
