<svg width="423" height="600" viewBox="0 0 423 600" fill="none" xmlns="http://www.w3.org/2000/svg">
<path d="M-232 126.717V118.758C-230.195 111.732 -226.411 105.488 -221.174 100.895C-220.681 100.439 -220.229 99.1339 -220.48 98.7207C-223.204 93.7412 -222.159 88.6529 -221.053 83.4995C-219.786 77.6393 -219.917 71.9748 -222.953 66.68C-223.686 65.4747 -224.094 64.0731 -224.133 62.6313C-224.172 61.1895 -223.84 59.7644 -223.174 58.5148C-221.731 55.5316 -220.151 52.6287 -218.439 49.817C-217.74 48.6523 -216.768 47.7087 -215.622 47.0823C-214.476 46.4559 -213.197 46.169 -211.915 46.2509C-210.324 46.1978 -208.737 46.0526 -207.161 45.816L-197.923 44.9788C-197.289 41.641 -196.596 37.553 -195.731 33.5085C-194.605 28.2789 -192.293 23.7234 -188.031 20.7879C-187.427 20.3754 -186.749 20.1068 -186.042 19.9999C-185.335 19.8931 -184.615 19.9504 -183.93 20.1682C-178.099 23.332 -172.872 22.0708 -168.087 17.9937C-163.061 13.6448 -158.266 9.10013 -153.461 4.50114C-149.008 0.23919 -148.998 0.152213 -144.052 3.53351C-140.031 6.2842 -136.161 9.26322 -130.813 8.73047C-128.883 8.54564 -126.561 10.2417 -124.782 11.6116C-122.289 13.5143 -122.721 16.2759 -125.475 17.885C-125.917 18.0604 -126.339 18.2902 -126.732 18.5699C-127.607 19.418 -128.411 20.353 -129.245 21.2445C-128.3 22.1272 -127.292 22.927 -126.229 23.6364C-124.219 24.7237 -122.138 25.5717 -120.198 26.6807C-118.519 27.6266 -118.037 29.0726 -118.378 31.2688C-118.673 33.0499 -118.347 34.8859 -117.464 36.4223C-115.26 39.4728 -113.879 43.1225 -113.473 46.9684C-113.051 50.7303 -110.407 52.3176 -107.261 50.665C-104.577 49.2516 -102.375 46.8054 -99.9023 44.9027C-98.8196 43.8981 -97.5714 43.1235 -96.2231 42.6195C-94.8182 42.3921 -93.3836 42.5186 -92.0313 42.9892C-90.2319 43.5002 -89.4378 43.0544 -89.2066 40.9669C-88.905 38.238 -88.1109 35.5308 -87.9299 32.8344C-87.4876 26.2132 -78.2596 21.8642 -73.7461 23.93C-73.0442 24.259 -72.4185 24.7525 -71.9144 25.3749C-71.4103 25.9972 -71.0402 26.7329 -70.8309 27.5287C-70.278 32.5409 -74.0376 37.6074 -78.6718 38.7163C-79.868 38.999 -81.1145 39.0969 -82.2705 39.4883C-82.6643 39.5779 -83.0369 39.7539 -83.3653 40.0053C-83.6938 40.2568 -83.9712 40.5783 -84.1803 40.9502C-84.3894 41.322 -84.5258 41.7363 -84.5812 42.1674C-84.6365 42.5985 -84.6096 43.0373 -84.5021 43.4567C-84.291 45.0875 -84.8338 46.8053 -84.7635 48.4797C-84.7031 49.8496 -84.6227 51.8827 -83.8487 52.4155C-83.2274 52.7634 -82.5379 52.945 -81.8382 52.945C-81.1385 52.945 -80.4491 52.7634 -79.8278 52.4155C-77.6263 50.5889 -75.2338 48.4797 -74.0577 45.8921C-71.9367 41.2496 -68.6496 38.5098 -64.5583 36.3679C-61.3315 34.6718 -60.1453 34.7262 -57.5216 37.3899C-56.1244 38.7816 -54.6969 40.1515 -52.8171 41.9889C-52.3547 39.597 -52.0431 38.0314 -51.8119 36.4549C-50.4247 28.5725 -45.1975 23.843 -37.7386 23.7234C-37.3633 23.7123 -36.9953 23.6082 -36.663 23.419C-32.5315 21.1358 -28.5106 18.8091 -26.289 13.9601C-24.3891 9.80684 -21.9464 8.66524 -17.7647 9.39369C-16.2769 9.65462 -14.749 10.0025 -13.3014 10.1982C-9.1535 10.9013 -4.91437 9.85433 -1.45978 7.27358C1.83739 4.77295 5.22502 2.41366 8.59256 0H11.9902C13.4679 2.28319 15.006 3.16385 18.0217 3.2617C24.7065 3.40304 28.6269 3.2617 30.5368 13.0468C30.7479 14.134 31.8738 15.0908 32.7081 15.9606C35.0604 18.4177 37.5533 20.7227 39.8252 23.245C40.9238 24.7471 41.9024 26.3475 42.7504 28.0288C43.6551 25.8544 44.7609 24.4953 44.7609 23.158C44.4191 16.2324 47.8469 11.1224 51.4959 6.15374C52.0588 5.37093 54.2 4.85993 54.7931 5.36006C59.4172 9.26322 64.001 13.2969 64.7751 20.2769C64.8497 21.2865 65.2356 22.2398 65.8708 22.9841C68.7658 25.6804 71.8016 28.2137 74.6967 30.7361C77.9637 28.4746 77.9738 25.5608 77.0188 22.4296C76.3956 20.3856 76.5464 18.6895 78.6875 18.0807C84.1258 16.439 89.5541 14.6668 95.0829 13.4926C96.0252 13.3757 96.9799 13.4857 97.8783 13.8146C98.7768 14.1436 99.5969 14.6833 100.28 15.3952C105.839 22.3209 102.723 33.5955 95.4045 35.8895C95.2035 39.2273 95.0427 42.326 94.8115 45.4137C94.5099 49.4799 95.9875 50.752 99.5662 49.7626C102.616 48.7956 105.727 48.0689 108.875 47.5882C110.091 47.4359 111.448 48.534 112.745 49.0668C112.285 50.6277 111.721 52.1502 111.056 53.6223C110.219 54.9709 109.277 56.2402 108.241 57.4167L108.794 58.2539C110.021 57.9386 111.267 57.6777 112.473 57.2971C116.233 56.1121 117.027 56.6992 117.299 60.8524C117.419 62.7659 117.66 64.6795 117.922 67.2236C119.872 65.4623 121.159 64.2989 122.455 63.1465C123.752 61.994 125.059 60.7872 126.396 59.6564C130.105 56.5361 132.317 57.3189 133.432 62.331C133.935 64.7012 133.955 67.1801 134.287 69.5937C134.398 70.4418 134.558 71.5725 135.091 72.0074C137.202 73.7035 139.434 75.2691 141.696 76.7042C142.603 77.3565 143.682 77.6722 144.77 77.6035C145.858 77.5349 146.896 77.0857 147.727 76.3237C153.256 71.9562 159.985 69.7343 166.826 70.0178C172.657 70.2026 178.497 70.3113 184.338 70.4635C187.294 70.5259 190.11 71.8417 192.178 74.1275C194.802 76.8673 196.35 79.9877 196.199 84.13C195.744 91.6917 196.864 99.2674 199.476 106.299C200.351 108.538 201.045 111.409 200.482 113.627C199.024 119.704 199.195 126.804 193.053 130.544C192.942 130.62 192.942 130.903 192.852 131.24C197.064 136.002 199.104 141.949 200.21 148.375C200.753 151.473 201.155 154.615 201.879 157.67C202.378 159.383 202.432 161.21 202.035 162.953C201.637 164.697 200.805 166.288 199.627 167.553C197.968 169.413 197.888 170.978 200.069 172.5C203.387 174.816 205.287 178.241 206.483 182.285C207.06 184.219 207.847 186.073 208.825 187.809C210.283 190.429 210.031 192.636 207.94 194.615C205.85 196.593 203.919 198.311 201.909 200.192C200.865 201.074 200.038 202.219 199.498 203.526C198.958 204.834 198.723 206.265 198.813 207.694C199.094 212.891 198.34 213.619 194.008 216.153C191.35 217.812 188.915 219.857 186.77 222.23C186.036 223.013 185.966 225.155 186.358 226.405C186.981 228.406 197.968 233.527 199.878 233.059C200.059 233 200.237 232.931 200.411 232.853C204.432 231.494 205.317 231.939 205.779 236.419C206.412 242.464 207.93 247.758 213.59 250.455C216.475 251.825 219.259 253.717 222.275 254.423C226.262 255.123 230.3 255.418 234.338 255.304C235.716 255.217 237.029 254.644 238.077 253.673C241.093 250.977 241.093 251.129 244.239 253.434C249.477 257.217 253.87 258.413 256.935 255.304C257.972 254.195 259.271 253.417 260.69 253.056C262.109 252.696 263.593 252.766 264.977 253.26C266.011 253.621 267.12 253.646 268.167 253.333C269.213 253.02 270.153 252.382 270.868 251.499C275.16 246.704 280.77 247.943 286.077 247.943C286.543 248.044 286.956 248.331 287.233 248.748C289.465 251.738 292.209 251.009 294.974 250.031C296.984 249.335 298.874 248.53 300.844 247.856C302.467 247.264 304.213 247.188 305.874 247.639C307.535 248.09 309.042 249.049 310.213 250.4C311.312 251.52 312.321 252.738 313.229 254.043C313.784 254.932 314.556 255.637 315.459 256.08C316.362 256.524 317.361 256.688 318.345 256.554C322.105 256.25 325.894 256.261 329.644 255.804C330.848 255.575 332.088 255.724 333.216 256.235C334.344 256.746 335.313 257.596 336.007 258.685C337.807 261.262 340.028 262.784 343.325 262.099C345.718 261.599 347.346 263.284 347.718 266.057C347.919 267.774 347.899 269.514 348 271.243C348.15 273.613 349.296 274.613 351.538 274.504C355.076 274.341 355.921 275.363 356.836 278.853C357.883 282.733 359.146 286.542 360.615 290.258C361.419 292.302 361.741 293.944 360.414 295.923C359.087 297.902 358.344 300.272 356.996 302.229C352.976 308.046 353.187 313.101 358.595 317.798C360.354 319.32 360.454 321.429 359.067 323.539C358.223 324.832 357.549 326.268 356.625 327.964C361.47 328.768 364.083 331.878 365.742 336.194C366.818 338.988 368.054 341.706 369.15 344.49C369.27 344.761 369.338 345.056 369.35 345.357C369.362 345.658 369.318 345.958 369.22 346.24C367.008 349.926 369.532 352.307 371.15 354.938C372.769 357.569 374.689 360.037 375.794 362.886C376.609 364.984 377.513 365.56 379.333 365.147C386.118 363.614 391.094 366.289 394.582 372.66C395.267 373.947 396.227 375.037 397.381 375.841C398.535 376.645 399.85 377.139 401.217 377.281C402.708 377.719 404.085 378.526 405.238 379.64C408.696 382.401 411.973 385.435 415.491 388.088C417.24 389.414 418.346 390.762 418.577 393.165C418.909 396.775 419.874 400.189 423 402.287V405.962C421.27 407.746 419.422 409.392 417.471 410.887C413.842 413.279 413.45 415.692 416.376 419.139C417.883 420.879 417.682 422.401 415.622 423.488C414.229 424.111 412.798 424.631 411.339 425.043C407.318 426.413 405.036 429.315 404.825 433.969C404.735 435.795 404.735 437.644 404.524 439.459C404.373 440.742 404.273 442.286 403.519 443.178C402.242 444.798 402.423 446.113 403.117 447.885C405.218 453.245 404.614 458.192 400.885 462.617C396.763 467.499 396.784 467.662 399.789 473.49C401.156 476.143 402.071 478.861 400.955 481.938C399.719 485.341 398.693 488.863 397.236 492.157C396.08 494.756 396.733 496.506 398.322 498.463C400.262 500.91 402.342 503.454 403.508 506.357C406.132 512.88 403.388 517.066 396.814 517.501C394.098 517.629 391.403 518.066 388.772 518.806C385.445 519.806 384.64 519.686 382.801 516.359C380.227 511.695 377.925 511.499 374.94 515.979C372.738 519.24 370.828 522.817 368.908 526.297C366.988 529.776 365.41 530.461 361.872 529.145C360.002 528.449 358.173 527.634 356.333 526.851C350.694 524.448 349.638 522.176 350.925 515.805C351.397 513.836 351.603 511.803 351.538 509.771C351.126 504.334 346.16 501.866 341.898 504.574C339.425 506.139 336.55 506.955 333.856 508.205C332.764 508.596 331.766 509.242 330.931 510.097C330.069 511.304 328.959 512.277 327.688 512.937C326.418 513.598 325.022 513.928 323.613 513.902C320.597 513.978 317.581 514.87 314.324 515.435C314.998 518.055 315.621 520.175 316.093 522.328C316.566 524.481 317.038 527.068 314.676 528.591C313.528 529.24 312.202 529.418 310.942 529.092C309.682 528.766 308.573 527.959 307.82 526.818C305.669 523.22 302.794 522.393 299.115 522.47C295.436 522.546 292.762 520.567 290.892 517.033C289.475 514.646 287.941 512.341 286.298 510.129C284.66 507.651 282.82 506.694 279.794 507.564C275.944 508.651 274.768 507.411 274.276 503.019C274.165 502.008 274.276 500.953 274.125 499.964C273.914 498.757 273.502 497.594 273.21 496.506C271.2 497.354 269.601 497.909 268.114 498.681C267.793 498.855 267.513 499.104 267.294 499.411C267.075 499.718 266.922 500.074 266.847 500.453C266.917 503.715 265.048 505.041 262.555 506.074C260.062 507.107 257.72 508.249 257.529 511.619C257.338 514.989 258.463 518.142 261.379 519.893C265.138 522.165 262.112 525.166 262.163 527.786C262.163 528.395 260.504 529.406 259.499 529.613C256.748 530.138 254.271 531.736 252.536 534.104C250.802 536.473 249.932 539.447 250.09 542.464C250.09 543.638 249.085 545.725 248.23 545.878C247.044 546.149 244.742 545.443 244.4 544.519C242.902 540.398 239.645 538.995 236.429 537.267C235.122 536.564 234.063 535.419 233.413 534.005C233.251 533.327 232.853 532.743 232.303 532.374C231.752 532.005 231.091 531.881 230.458 532.026C227.09 532.265 226.728 531.678 226.125 528.069C225.813 526.144 224.838 524.34 223.833 521.545C219.812 527.438 215.389 524.688 211.348 524.133C210.905 525.111 210.369 526.036 209.75 526.895C207.136 529.754 205.839 532.776 207.739 536.778C208.544 538.463 207.548 539.474 205.87 539.55C202.17 539.724 198.501 539.8 195.234 537.375C192.983 535.712 190.982 536.375 188.71 537.865C185.488 539.899 182.128 541.666 178.658 543.149C176.256 544.054 173.809 544.816 171.33 545.432C166.505 546.943 166.515 546.954 166.846 552.281C167.409 561.142 163.328 566.046 155.226 566.948C152.462 567.374 149.788 568.319 147.325 569.742C143.535 571.765 141.374 575.559 139.514 579.527C138.288 582.137 136.498 584.333 133.674 584.105C130.367 583.844 127.492 584.801 124.456 585.975C122.124 586.877 119.43 586.834 116.937 587.062C115.065 587.292 113.181 587.397 111.297 587.377C109.146 587.377 106.995 586.997 104.834 586.779V585.833C104.18 586.399 103.577 587.345 102.823 587.453C100.431 587.801 100.501 589.628 99.9583 591.552C99.3078 593.525 98.2003 595.285 96.7415 596.662C95.3342 598.076 93.4242 598.913 91.7153 600H87.1918C85.1813 598.065 83.2211 595.988 81.0699 594.238C79.3911 592.868 77.5315 591.128 75.6215 590.911C72.5154 590.563 69.2584 591.389 69.1177 586.377C64.4232 582.333 59.8092 578.158 54.974 574.32C53.5265 573.167 51.1441 573.352 49.7368 572.145C44.972 568.166 39.9659 565.296 33.7234 565.622C33.2166 565.636 32.7132 565.528 32.2505 565.304C31.7877 565.08 31.3773 564.746 31.0495 564.328C29.7628 561.425 28.8078 558.348 27.7423 555.326C27.4286 554.157 27.0493 553.009 26.6064 551.89C24.9276 548.498 25.5408 546.856 28.9284 545.584C35.3217 543.17 41.6882 540.717 48.0279 538.223C48.6252 537.947 49.1836 537.581 49.6865 537.136C49.3347 533.755 49.0432 531.015 48.7516 528.275C48.7516 527.982 48.7516 527.579 48.5707 527.406C45.555 524.144 47.1634 521.1 48.8924 518.055C51.7975 512.945 52.6017 507.998 49.5156 502.377C48.3151 500.218 47.5804 497.793 47.3664 495.284C47.1523 492.775 47.4643 490.245 48.2792 487.885C49.0331 485.623 47.8067 484.514 46.329 483.384C38.5284 477.469 30.768 471.489 25.8826 462.248C25.189 460.943 24.0732 459.899 23.2891 458.627C22.505 457.355 21.7108 457.083 20.2734 457.801C12.3421 461.748 4.80286 462.215 -1.72112 453.974C-4.73682 457.236 -6.88803 455.713 -9.15987 452.745C-10.2134 451.268 -11.6448 450.158 -13.2763 449.553C-14.9079 448.948 -16.6678 448.875 -18.3376 449.342C-22.1382 450.469 -25.8685 451.856 -29.5058 453.496C-29.9387 453.745 -30.3088 454.106 -30.5838 454.545C-30.8588 454.985 -31.0305 455.49 -31.084 456.018C-30.3803 463.998 -33.8283 468.76 -40.4327 471.859C-45.4588 474.207 -49.8115 474.24 -54.2546 470.772C-57.5417 468.195 -57.974 468.336 -60.9595 471.467C-63.9451 474.599 -66.9909 477.556 -71.2732 477.926C-74.4297 478.197 -76.8824 479.187 -78.7321 482.014C-79.8881 483.786 -81.2451 483.721 -82.753 482.198C-84.0949 480.77 -85.6018 479.535 -87.2363 478.524C-92.9762 475.208 -98.2939 471.815 -101.973 465.357C-104.134 461.595 -109.01 459.53 -112.84 457.04C-114.85 455.713 -116.076 454.507 -115.493 451.734C-115.344 450.59 -115.595 449.427 -116.197 448.473C-117.258 446.641 -118.785 445.18 -120.595 444.264C-122.405 443.348 -124.42 443.016 -126.4 443.308C-130.602 443.7 -134.764 443.308 -137.458 439.329C-139.552 436.341 -141.151 432.982 -142.182 429.402C-144.193 421.792 -143.55 414.04 -141.559 406.451C-140.182 401.2 -141.268 396.927 -145.188 393.306C-149.108 389.686 -152.707 385.891 -156.296 381.988C-156.624 381.516 -156.839 380.963 -156.922 380.378C-157.004 379.794 -156.952 379.196 -156.768 378.64C-153.481 373.203 -149.943 367.909 -146.525 362.549C-143.328 357.536 -140.192 352.492 -137.026 347.469C-136.338 346.53 -136.021 345.336 -136.141 344.146C-136.261 342.955 -136.81 341.864 -137.669 341.108C-139.478 339.227 -141.69 337.847 -143.55 335.977C-144.677 334.762 -145.617 333.36 -146.334 331.823C-147.279 329.942 -147.761 327.768 -148.817 325.985C-149.911 324.454 -151.114 323.018 -152.416 321.69C-153.883 319.896 -153.843 318.081 -152.496 316.156C-151.071 314.272 -149.797 312.261 -148.686 310.144C-147.199 307.024 -145.178 304.958 -141.921 304.295C-139.569 303.816 -139.086 302.327 -140.554 300.207C-141.79 298.402 -143.137 296.695 -144.515 295.021C-146.455 292.65 -147.731 290.15 -147.53 286.758C-147.47 285.67 -148.958 284.518 -149.742 283.398C-150.295 282.604 -151.471 281.648 -151.33 281.082C-150.646 278.418 -149.732 275.777 -146.626 275.298C-144.754 275.055 -142.898 274.692 -141.067 274.211C-136.875 272.982 -135.327 268.775 -137.599 264.872C-138.734 262.915 -138.845 261.175 -137.337 259.316C-133.236 254.293 -133.316 249.4 -138.051 245.04C-142.124 241.43 -146.376 238.062 -150.787 234.951C-152.848 233.451 -154.094 231.918 -153.019 229.189C-150.923 223.776 -150.79 217.709 -152.647 212.195C-153.994 207.683 -152.556 203.378 -150.636 199.268C-149.259 196.343 -146.676 197.148 -144.535 196.561C-144.464 196.561 -144.434 196.398 -144.384 196.311C-147.932 192.679 -147.822 192.766 -144.846 188.08C-142.972 185.289 -141.416 182.262 -140.212 179.067C-138.634 174.479 -139.76 172.848 -144.233 171.815C-153.984 169.576 -163.986 168.662 -173.475 164.955C-176.199 163.868 -177.878 162.313 -178.692 159.573C-179.138 158.027 -179.315 156.405 -179.215 154.789C-178.944 150.44 -179.647 149.831 -183.497 151.223C-184.547 151.681 -185.63 152.045 -186.734 152.31C-189.971 152.887 -191.57 151.789 -192.223 148.288C-192.522 146.283 -192.64 144.251 -192.575 142.221C-192.575 140.22 -193.097 139.177 -195.188 138.742C-202.929 137.154 -210.357 134.469 -216.771 129.37C-218.377 127.944 -220.303 127.001 -222.353 126.636C-224.404 126.272 -226.508 126.498 -228.452 127.293C-229.276 127.728 -230.723 126.956 -232 126.717Z" fill="#E6ECFF"/>
</svg>
