<svg width="44" height="44" viewBox="0 0 44 44" fill="none" xmlns="http://www.w3.org/2000/svg">
<path d="M16.5 18.3337L22.473 22.8143C22.843 23.0919 23.3043 23.2192 23.7643 23.171C24.2244 23.1227 24.6491 22.9023 24.9535 22.554L36.6667 9.16699" stroke="white" stroke-width="3" stroke-linecap="round"/>
<path d="M38.5 22.0002C38.5001 25.4478 37.4202 28.8089 35.412 31.6113C33.4039 34.4137 30.5684 36.5167 27.3037 37.6249C24.039 38.7331 20.5092 38.7908 17.2101 37.7899C13.9109 36.7891 11.0081 34.7799 8.9094 32.0447C6.81069 29.3095 5.62149 25.9855 5.50882 22.5397C5.39615 19.0939 6.36567 15.6994 8.28121 12.8329C10.1968 9.9664 12.9621 7.77192 16.1888 6.55769C19.4156 5.34346 22.9416 5.17047 26.2717 6.06302" stroke="white" stroke-width="3" stroke-linecap="round"/>
</svg>
