<svg width="171" height="50" viewBox="0 0 171 50" fill="none" xmlns="http://www.w3.org/2000/svg">
<path d="M57.9636 29V11.3137H64.7532C66.0273 11.3137 67.0877 11.5155 67.9344 11.9191C68.7811 12.3147 69.4142 12.8608 69.8336 13.5571C70.253 14.2456 70.4627 15.0251 70.4627 15.8955C70.4627 16.6156 70.3242 17.2329 70.0473 17.7472C69.7782 18.2537 69.4102 18.6652 68.9433 18.9817C68.4765 19.2983 67.9542 19.5277 67.3765 19.6702V19.8482C68.0096 19.872 68.611 20.0619 69.1807 20.418C69.7584 20.7662 70.2293 21.2568 70.5933 21.8899C70.9652 22.5229 71.1512 23.2866 71.1512 24.1808C71.1512 25.0987 70.9296 25.9217 70.4864 26.6497C70.0512 27.3699 69.3865 27.9436 68.4923 28.3709C67.606 28.7903 66.4863 29 65.1331 29H57.9636ZM61.1685 26.3293H64.6108C65.7741 26.3293 66.6129 26.1037 67.1272 25.6527C67.6495 25.2016 67.9107 24.6279 67.9107 23.9315C67.9107 23.4013 67.7801 22.9265 67.5189 22.5071C67.2578 22.0877 66.8859 21.7553 66.4032 21.51C65.9284 21.2647 65.3665 21.1421 64.7176 21.1421H61.1685V26.3293ZM61.1685 18.8393H64.3497C64.8957 18.8393 65.3903 18.7364 65.8334 18.5307C66.2766 18.3249 66.6247 18.0361 66.878 17.6642C67.1391 17.2843 67.2697 16.8372 67.2697 16.3228C67.2697 15.6423 67.0283 15.0805 66.5456 14.6373C66.0629 14.1862 65.3546 13.9607 64.4209 13.9607H61.1685V18.8393ZM73.0385 29V11.3137H76.2434V26.3174H84.042V29H73.0385ZM97.0396 11.3137H100.233V22.8632C100.233 24.1293 99.9359 25.2451 99.3424 26.2106C98.7489 27.1681 97.914 27.9198 96.8378 28.4659C95.7616 29.004 94.5034 29.273 93.0632 29.273C91.6229 29.273 90.3647 29.004 89.2885 28.4659C88.2123 27.9198 87.3735 27.1681 86.7721 26.2106C86.1786 25.2451 85.8818 24.1293 85.8818 22.8632V11.3137H89.0867V22.6021C89.0867 23.3459 89.2489 24.0027 89.5734 24.5725C89.8978 25.1423 90.3568 25.5933 90.9503 25.9257C91.5517 26.2501 92.256 26.4123 93.0632 26.4123C93.8703 26.4123 94.5707 26.2501 95.1642 25.9257C95.7577 25.5933 96.2166 25.1423 96.5411 24.5725C96.8734 24.0027 97.0396 23.3459 97.0396 22.6021V11.3137ZM102.808 29V11.3137H114.322V13.9963H106.013V18.7443H113.705V21.3913H106.013V26.3174H114.37V29H102.808ZM124.329 29.2374C122.778 29.2374 121.389 28.8773 120.162 28.1572C118.944 27.4371 117.982 26.4005 117.278 25.0473C116.582 23.6941 116.233 22.0679 116.233 20.1687C116.233 18.2616 116.586 16.6315 117.29 15.2783C118.002 13.9172 118.967 12.8766 120.186 12.1565C121.413 11.4364 122.794 11.0763 124.329 11.0763C125.302 11.0763 126.212 11.2148 127.059 11.4918C127.913 11.7687 128.673 12.1763 129.338 12.7144C130.003 13.2446 130.545 13.8974 130.964 14.6729C131.391 15.4405 131.672 16.3149 131.807 17.2962H128.578C128.491 16.7581 128.321 16.2833 128.068 15.8718C127.822 15.4603 127.514 15.1121 127.142 14.8272C126.778 14.5344 126.362 14.3168 125.896 14.1744C125.429 14.024 124.926 13.9488 124.388 13.9488C123.423 13.9488 122.568 14.1902 121.824 14.6729C121.08 15.1477 120.499 15.852 120.079 16.7858C119.66 17.7116 119.45 18.8393 119.45 20.1687C119.45 21.514 119.66 22.6496 120.079 23.5754C120.507 24.4934 121.088 25.1897 121.824 25.6645C122.568 26.1314 123.419 26.3649 124.376 26.3649C124.906 26.3649 125.401 26.2976 125.86 26.1631C126.319 26.0206 126.734 25.8109 127.106 25.534C127.486 25.2491 127.799 24.9088 128.044 24.5131C128.297 24.1096 128.475 23.6466 128.578 23.1244H131.807C131.688 23.9711 131.427 24.7664 131.023 25.5102C130.628 26.2462 130.105 26.8951 129.457 27.4569C128.816 28.0108 128.064 28.4461 127.201 28.7626C126.339 29.0791 125.381 29.2374 124.329 29.2374ZM137.065 11.3137V29H133.86V11.3137H137.065ZM138.858 13.9963V11.3137H152.959V13.9963H147.499V29H144.33V13.9963H138.858ZM153.826 11.3137H157.446L161.767 19.1479H161.957L166.277 11.3137H169.898L163.452 22.4003V29H160.259V22.4003L153.826 11.3137Z" fill="#6200EE"/>
<path d="M61.0429 42.9785L58.7295 34.6119H60.0547L61.6831 41.0918H61.7617L63.4575 34.6119H64.7714L66.4616 41.0974H66.5458L68.1686 34.6119H69.505L67.1747 42.9785H65.9057L64.1481 36.7176H64.0808L62.3232 42.9785H61.0429ZM83.5966 42.9785V34.6119H84.86V41.8948H88.6503V42.9785H83.5966ZM93.5148 42.9785V34.6119H94.7782V38.6099H94.8793L98.3944 34.6119H99.9723L96.6032 38.3741L99.9891 42.9785H98.4674L95.7609 39.2444L94.7782 40.3843V42.9785H93.5148ZM110.645 35.6956V34.6119H117.125V35.6956H114.519V42.9785H113.261V35.6956H110.645ZM125.111 43.0908C124.392 43.0908 123.749 42.9186 123.18 42.5742C122.611 42.2298 122.161 41.7376 121.832 41.0974C121.502 40.4536 121.338 39.688 121.338 38.8008C121.338 37.9061 121.502 37.1387 121.832 36.4986C122.161 35.8547 122.611 35.3606 123.18 35.0162C123.749 34.6718 124.392 34.4996 125.111 34.4996C125.837 34.4996 126.483 34.6718 127.048 35.0162C127.614 35.3606 128.059 35.8547 128.385 36.4986C128.714 37.1387 128.879 37.9061 128.879 38.8008C128.879 39.6918 128.714 40.4573 128.385 41.0974C128.059 41.7376 127.614 42.2298 127.048 42.5742C126.483 42.9186 125.837 43.0908 125.111 43.0908ZM125.111 41.9397C125.594 41.9397 126.025 41.8199 126.403 41.5803C126.781 41.3408 127.078 40.987 127.295 40.5191C127.516 40.0511 127.627 39.4784 127.627 38.8008C127.627 38.1195 127.516 37.5449 127.295 37.077C127.078 36.6053 126.781 36.2497 126.403 36.0101C126.025 35.7705 125.594 35.6507 125.111 35.6507C124.632 35.6507 124.201 35.7705 123.82 36.0101C123.442 36.2497 123.142 36.6053 122.921 37.077C122.7 37.5449 122.59 38.1195 122.59 38.8008C122.59 39.4784 122.7 40.0511 122.921 40.5191C123.142 40.987 123.442 41.3408 123.82 41.5803C124.201 41.8199 124.632 41.9397 125.111 41.9397ZM139.258 34.6119H140.521V40.1148C140.521 40.6988 140.382 41.2172 140.105 41.6702C139.832 42.1194 139.447 42.4732 138.949 42.7314C138.451 42.986 137.867 43.1133 137.197 43.1133C136.53 43.1133 135.946 42.986 135.445 42.7314C134.947 42.4732 134.56 42.1194 134.283 41.6702C134.009 41.2172 133.873 40.6988 133.873 40.1148V34.6119H135.136V40.0137C135.136 40.3918 135.218 40.7287 135.383 41.0244C135.552 41.3164 135.789 41.5466 136.096 41.7151C136.407 41.8836 136.774 41.9678 137.197 41.9678C137.624 41.9678 137.99 41.8836 138.297 41.7151C138.604 41.5466 138.84 41.3164 139.005 41.0244C139.173 40.7287 139.258 40.3918 139.258 40.0137V34.6119ZM145.779 42.9785V34.6119H148.766C149.413 34.6119 149.951 34.7242 150.377 34.9488C150.804 35.1697 151.124 35.4785 151.338 35.8753C151.551 36.2684 151.658 36.7232 151.658 37.2398C151.658 37.7489 151.551 38.1981 151.338 38.5875C151.124 38.9768 150.802 39.2781 150.372 39.4915C149.945 39.7049 149.406 39.8116 148.755 39.8116H146.503V38.7334H148.637C149.052 38.7334 149.387 38.6736 149.642 38.5538C149.9 38.434 150.087 38.2636 150.203 38.0428C150.323 37.8219 150.383 37.5543 150.383 37.2398C150.383 36.9216 150.323 36.6483 150.203 36.42C150.084 36.1879 149.895 36.0101 149.636 35.8866C149.382 35.7593 149.047 35.6956 148.631 35.6956H147.042V42.9785H145.779ZM150.54 42.9785L148.513 39.1995H149.911L151.978 42.9785H150.54Z" fill="#25005B"/>
<path d="M72.4766 41.3714L72.1103 40.9549L71.8231 41.2074L71.9571 41.5656L72.4766 41.3714ZM74.9724 39.177L75.3386 39.5935L75.4381 39.506L75.4873 39.383L74.9724 39.177ZM76.6362 35.0173L77.14 34.7854L76.1213 34.8114L76.6362 35.0173ZM78.5774 39.2333H79.132V39.1117L79.0812 39.0013L78.5774 39.2333ZM78.5774 42.5047H78.0228V43.0594H78.5774V42.5047ZM73.1077 43.0594L73.6272 42.8651L72.9961 41.1771L72.4766 41.3714L71.9571 41.5656L72.5882 43.2536L73.1077 43.0594ZM72.4766 41.3714L72.8428 41.7879L75.3386 39.5935L74.9724 39.177L74.6061 38.7605L72.1103 40.9549L72.4766 41.3714ZM74.9724 39.177L75.4873 39.383L77.1512 35.2233L76.6362 35.0173L76.1213 34.8114L74.4574 38.971L74.9724 39.177ZM76.6362 35.0173L76.1324 35.2493L78.0736 39.4652L78.5774 39.2333L79.0812 39.0013L77.14 34.7854L76.6362 35.0173ZM78.5774 39.2333H78.0228V42.5047H78.5774H79.132V39.2333H78.5774ZM78.5774 42.5047V43.0594H80.2508V42.5047V41.9501H78.5774V42.5047Z" fill="#25005B"/>
<path d="M17.5545 26.6257C7.79115 30.3535 7.42133 37.3506 8.45683 40.3832C7.27342 39.7915 5.26156 38.608 3.13138 36.8328C0.468642 34.6139 1.80001 25.96 8.90063 19.747C16.0013 13.5339 23.7676 11.0931 30.4244 9.7617C37.0812 8.43033 42.1848 8.65223 43.0724 11.5369C45.2913 20.4126 29.7587 21.9659 17.5545 26.6257Z" fill="#6200EE"/>
<path d="M29.5657 7.98887C4.26975 14.2019 2.27275 25.0748 1.82891 25.9624C-1.7214 17.6191 0.332949 13.7581 4.26975 11.5392C14.0331 6.03622 25.5716 6.95336 29.5657 7.98887Z" fill="#F5222D"/>
<path d="M39.5234 39.2761C40.5885 32.1755 32.5707 27.4418 28.4287 25.9625C31.7571 24.6311 39.5234 24.853 43.0738 30.6222C47.1948 37.3188 42.2602 39.2761 39.5234 39.2761Z" fill="#389E0D"/>
<path d="M36.4131 22.2099C42.4042 21.0812 46.0877 15.8889 45.7327 12.8711C47.6557 15.3859 49.7268 22.6345 36.4131 22.2099Z" fill="#CF1322"/>
<path d="M38.8545 24.0903C40.6284 24.4755 44.1796 27.0304 44.6238 29.4157C46.9906 27.2708 49.1504 23.2027 38.8545 24.0903Z" fill="#23DC0B"/>
<path d="M36.4165 7.11991C30.4254 4.65978 16.3196 4.62596 12.6738 6.67612C14.449 4.30923 19.5526 -0.335785 25.7656 0.0192459C31.9787 0.374277 35.455 4.90095 36.4165 7.11991Z" fill="#FADB14"/>
<path d="M16.8052 45.5949C13.6099 46.8375 11.7756 45.0771 11.2579 44.0416C9.70459 50.9204 24.3496 51.586 25.0153 47.37C25.681 43.154 20.7993 44.0416 16.8052 45.5949Z" fill="#11002A"/>
<path d="M33.9509 43.8748C37.2936 44.6363 38.8505 42.6264 39.2112 41.5263C41.7545 48.1036 27.3647 50.9057 26.0891 46.8325C24.8134 42.7594 29.7725 42.9229 33.9509 43.8748Z" fill="#11002A"/>
</svg>
