<svg width="837" height="767" viewBox="0 0 837 767" fill="none" xmlns="http://www.w3.org/2000/svg">
<path d="M0.5 162.192V152.037C2.80203 143.071 7.62935 135.104 14.3107 129.243C14.939 128.661 15.5161 126.996 15.1955 126.469C11.7204 120.115 13.054 113.622 14.4645 107.046C16.0803 99.5685 15.9136 92.3405 12.0409 85.5843C11.1063 84.0464 10.5851 82.2579 10.5353 80.4182C10.4855 78.5785 10.9091 76.76 11.7588 75.1655C13.599 71.3589 15.6148 67.6547 17.7986 64.067C18.6906 62.5808 19.9306 61.3767 21.3925 60.5774C22.8543 59.7781 24.4858 59.4121 26.1209 59.5166C28.1504 59.4488 30.1751 59.2636 32.1863 58.9616L43.9709 57.8934C44.7787 53.6343 45.6635 48.418 46.7663 43.2572C48.2025 36.5842 51.1519 30.7713 56.589 27.0255C57.3591 26.4992 58.224 26.1565 59.1261 26.0201C60.0283 25.8838 60.9469 25.9569 61.8209 26.2348C69.2583 30.2719 75.9264 28.6626 82.0303 23.4601C88.4419 17.9109 94.5586 12.1119 100.688 6.2435C106.369 0.805209 106.382 0.694225 112.691 5.00879C117.82 8.51871 122.757 12.32 129.579 11.6402C132.041 11.4043 135.003 13.5685 137.273 15.3166C140.453 17.7444 139.902 21.2682 136.388 23.3214C135.825 23.5452 135.287 23.8385 134.785 24.1954C133.67 25.2775 132.644 26.4706 131.579 27.6082C132.785 28.7345 134.071 29.7551 135.426 30.6603C137.991 32.0476 140.645 33.1298 143.12 34.5448C145.262 35.7518 145.877 37.5969 145.441 40.3993C145.065 42.672 145.481 45.0147 146.608 46.9752C149.419 50.8677 151.181 55.5247 151.699 60.4322C152.238 65.2323 155.61 67.2578 159.624 65.1491C163.048 63.3456 165.856 60.2241 169.011 57.7963C170.392 56.5144 171.984 55.526 173.704 54.8829C175.496 54.5928 177.326 54.7542 179.051 55.3546C181.346 56.0066 182.36 55.4378 182.654 52.7742C183.039 49.292 184.052 45.8376 184.283 42.397C184.847 33.9483 196.619 28.399 202.377 31.0349C203.272 31.4547 204.07 32.0845 204.713 32.8786C205.356 33.6727 205.828 34.6114 206.095 35.6269C206.801 42.0225 202.005 48.4874 196.093 49.9024C194.567 50.2631 192.977 50.388 191.503 50.8874C191 51.0018 190.525 51.2264 190.106 51.5472C189.687 51.868 189.333 52.2783 189.066 52.7528C188.8 53.2273 188.625 53.7559 188.555 54.306C188.484 54.8561 188.519 55.416 188.656 55.9512C188.925 58.0321 188.233 60.2241 188.322 62.3606C188.399 64.1086 188.502 66.7029 189.489 67.3827C190.282 67.8266 191.161 68.0583 192.054 68.0583C192.946 68.0583 193.826 67.8266 194.619 67.3827C197.427 65.052 200.479 62.3606 201.979 59.0587C204.685 53.1349 208.878 49.6389 214.097 46.9058C218.213 44.7416 219.727 44.811 223.073 48.2099C224.856 49.9857 226.677 51.7337 229.075 54.0783C229.665 51.0262 230.062 49.0284 230.357 47.0168C232.127 36.9588 238.795 30.9239 248.31 30.7713C248.788 30.7572 249.258 30.6243 249.682 30.3829C254.952 27.4695 260.081 24.5006 262.915 18.3132C265.339 13.0136 268.455 11.5569 273.789 12.4864C275.687 12.8194 277.636 13.2633 279.483 13.5131C284.774 14.4102 290.182 13.0742 294.589 9.78117C298.795 6.59033 303.116 3.57985 307.412 0.5H311.746C313.631 3.41337 315.593 4.5371 319.44 4.66196C327.968 4.84231 332.969 4.66196 335.405 17.1478C335.674 18.5352 337.111 19.756 338.175 20.8658C341.176 24.0012 344.356 26.9423 347.254 30.1609C348.655 32.0776 349.904 34.1197 350.985 36.2651C352.14 33.4905 353.55 31.7563 353.55 30.0499C353.114 21.2127 357.487 14.6923 362.142 8.35223C362.86 7.35336 365.591 6.70132 366.348 7.33948C372.246 12.32 378.094 17.4669 379.081 26.3735C379.176 27.6618 379.669 28.8783 380.479 29.8279C384.172 33.2685 388.045 36.5009 391.738 39.7195C395.905 36.8339 395.918 33.1159 394.7 29.1204C393.905 26.5122 394.097 24.348 396.829 23.5711C403.766 21.4763 410.691 19.2149 417.743 17.7166C418.945 17.5675 420.163 17.7079 421.309 18.1276C422.456 18.5473 423.502 19.236 424.373 20.1444C431.464 28.9817 427.489 43.3682 418.154 46.2954C417.897 50.5545 417.692 54.5083 417.397 58.4483C417.012 63.6369 418.897 65.2601 423.463 63.9976C427.353 62.7637 431.322 61.8364 435.337 61.223C436.888 61.0287 438.62 62.4299 440.274 63.1097C439.687 65.1014 438.967 67.0442 438.119 68.9226C437.051 70.6434 435.85 72.2631 434.529 73.7643L435.234 74.8326C436.799 74.4302 438.389 74.0973 439.928 73.6117C444.723 72.0995 445.737 72.8487 446.083 78.1483C446.237 80.5899 446.544 83.0316 446.878 86.278C449.366 84.0305 451.007 82.5461 452.661 81.0755C454.315 79.605 455.982 78.065 457.688 76.6222C462.42 72.6406 465.241 73.6395 466.664 80.035C467.305 83.0594 467.331 86.2225 467.754 89.3023C467.895 90.3844 468.1 91.8272 468.78 92.3822C471.473 94.5464 474.32 96.5441 477.205 98.3754C478.363 99.2077 479.739 99.6104 481.127 99.5229C482.515 99.4353 483.838 98.8621 484.899 97.8898C491.951 92.3168 500.536 89.4817 509.263 89.8434C516.7 90.0792 524.151 90.2179 531.601 90.4122C535.373 90.4917 538.965 92.1707 541.603 95.0874C544.95 98.5835 546.925 102.565 546.733 107.851C546.152 117.5 547.581 127.166 550.913 136.138C552.029 138.996 552.913 142.659 552.195 145.489C550.336 153.244 550.554 162.303 542.719 167.075C542.578 167.173 542.578 167.533 542.462 167.963C547.835 174.04 550.438 181.628 551.849 189.827C552.541 193.781 553.054 197.791 553.978 201.689C554.614 203.874 554.683 206.206 554.176 208.43C553.67 210.655 552.607 212.685 551.105 214.3C548.989 216.672 548.887 218.67 551.669 220.612C555.901 223.567 558.325 227.937 559.851 233.098C560.588 235.566 561.59 237.931 562.839 240.146C564.698 243.489 564.377 246.305 561.71 248.83C559.043 251.355 556.581 253.547 554.016 255.947C552.685 257.072 551.629 258.533 550.94 260.202C550.252 261.87 549.952 263.696 550.067 265.52C550.426 272.151 549.464 273.08 543.937 276.313C540.547 278.43 537.441 281.039 534.704 284.068C533.768 285.067 533.678 287.8 534.179 289.395C534.974 291.948 548.989 298.482 551.426 297.886C551.656 297.81 551.883 297.722 552.106 297.622C557.235 295.888 558.363 296.457 558.953 302.173C559.761 309.886 561.697 316.642 568.917 320.083C572.597 321.831 576.149 324.245 579.996 325.147C585.082 326.04 590.234 326.416 595.384 326.27C597.142 326.159 598.817 325.429 600.154 324.189C604.001 320.749 604.001 320.943 608.015 323.884C614.696 328.712 620.3 330.238 624.211 326.27C625.533 324.855 627.19 323.863 629 323.403C630.811 322.942 632.703 323.032 634.469 323.662C635.788 324.123 637.202 324.155 638.538 323.756C639.873 323.356 641.071 322.543 641.984 321.415C647.459 315.297 654.615 316.878 661.385 316.878C661.979 317.007 662.506 317.373 662.86 317.905C665.707 321.72 669.208 320.79 672.734 319.542C675.299 318.654 677.709 317.627 680.223 316.767C682.293 316.011 684.52 315.915 686.639 316.49C688.758 317.066 690.68 318.289 692.174 320.014C693.576 321.442 694.863 322.997 696.021 324.661C696.729 325.795 697.714 326.695 698.866 327.261C700.018 327.827 701.293 328.036 702.548 327.866C707.344 327.477 712.178 327.491 716.961 326.908C718.498 326.616 720.08 326.807 721.519 327.458C722.958 328.11 724.193 329.195 725.079 330.585C727.374 333.873 730.208 335.815 734.414 334.941C737.466 334.303 739.543 336.453 740.018 339.991C740.274 342.183 740.248 344.403 740.377 346.608C740.569 349.633 742.031 350.909 744.89 350.77C749.404 350.562 750.481 351.866 751.648 356.32C752.985 361.271 754.595 366.13 756.47 370.873C757.496 373.481 757.906 375.576 756.213 378.101C754.521 380.625 753.572 383.65 751.854 386.147C746.724 393.569 746.993 400.02 753.892 406.013C756.136 407.956 756.265 410.647 754.495 413.339C753.418 414.989 752.559 416.821 751.379 418.985C757.56 420.011 760.894 423.979 763.01 429.487C764.382 433.052 765.959 436.521 767.357 440.072C767.51 440.419 767.597 440.795 767.612 441.179C767.627 441.563 767.571 441.946 767.447 442.306C764.625 447.009 767.844 450.047 769.909 453.404C771.973 456.762 774.422 459.911 775.833 463.546C776.872 466.223 778.026 466.958 780.347 466.431C789.002 464.475 795.35 467.888 799.8 476.018C800.673 477.659 801.897 479.051 803.37 480.077C804.842 481.103 806.52 481.733 808.263 481.914C810.166 482.473 811.922 483.503 813.392 484.924C817.804 488.448 821.984 492.319 826.472 495.704C828.703 497.396 830.114 499.116 830.409 502.182C830.832 506.788 832.063 511.145 836.051 513.822V518.511C833.844 520.788 831.487 522.888 828.998 524.796C824.369 527.848 823.869 530.928 827.6 535.325C829.524 537.545 829.268 539.487 826.639 540.875C824.862 541.67 823.037 542.333 821.176 542.859C816.047 544.607 813.136 548.311 812.867 554.249C812.751 556.579 812.751 558.938 812.482 561.254C812.289 562.892 812.161 564.861 811.199 565.999C809.571 568.066 809.802 569.745 810.687 572.006C813.367 578.846 812.597 585.158 807.84 590.804C802.582 597.033 802.608 597.242 806.442 604.678C808.186 608.063 809.353 611.531 807.93 615.457C806.352 619.799 805.044 624.294 803.185 628.498C801.71 631.814 802.544 634.047 804.57 636.544C807.045 639.666 809.699 642.912 811.187 646.616C814.534 654.94 811.033 660.281 802.646 660.836C799.182 661 795.744 661.558 792.388 662.501C788.143 663.777 787.117 663.625 784.771 659.38C781.488 653.428 778.552 653.178 774.743 658.894C771.935 663.056 769.498 667.62 767.049 672.06C764.6 676.499 762.587 677.373 758.073 675.694C755.688 674.807 753.354 673.766 751.007 672.767C743.813 669.701 742.467 666.802 744.108 658.672C744.71 656.16 744.974 653.566 744.89 650.972C744.365 644.036 738.03 640.887 732.593 644.341C729.438 646.339 725.771 647.379 722.334 648.975C720.942 649.474 719.668 650.298 718.603 651.389C717.504 652.929 716.088 654.17 714.467 655.013C712.846 655.856 711.066 656.278 709.267 656.244C705.42 656.341 701.573 657.479 697.419 658.2C698.278 661.544 699.073 664.249 699.676 666.996C700.278 669.743 700.881 673.045 697.867 674.987C696.403 675.815 694.711 676.042 693.104 675.627C691.496 675.211 690.082 674.181 689.122 672.726C686.378 668.134 682.71 667.079 678.017 667.176C673.324 667.273 669.913 664.749 667.528 660.24C665.72 657.193 663.763 654.253 661.667 651.43C659.577 648.267 657.231 647.046 653.371 648.156C648.459 649.543 646.959 647.962 646.331 642.357C646.19 641.067 646.331 639.721 646.139 638.459C645.869 636.919 645.343 635.434 644.972 634.047C642.407 635.129 640.368 635.837 638.47 636.822C638.061 637.044 637.704 637.362 637.424 637.753C637.145 638.145 636.95 638.599 636.854 639.083C636.944 643.245 634.559 644.938 631.379 646.256C628.199 647.573 625.211 649.03 624.967 653.331C624.724 657.632 626.16 661.655 629.879 663.888C634.675 666.788 630.815 670.617 630.879 673.96C630.879 674.737 628.763 676.027 627.481 676.291C623.971 676.961 620.811 679 618.599 682.022C616.387 685.045 615.276 688.84 615.478 692.689C615.478 694.187 614.196 696.851 613.106 697.045C611.593 697.392 608.656 696.49 608.22 695.311C606.309 690.053 602.155 688.264 598.051 686.058C596.384 685.161 595.033 683.7 594.204 681.896C593.998 681.031 593.49 680.285 592.788 679.814C592.085 679.344 591.242 679.185 590.434 679.371C586.138 679.676 585.677 678.927 584.907 674.321C584.51 671.865 583.266 669.563 581.984 665.997C576.854 673.516 571.212 670.006 566.057 669.299C565.492 670.547 564.809 671.727 564.018 672.823C560.684 676.471 559.03 680.328 561.454 685.433C562.479 687.584 561.21 688.874 559.069 688.971C554.35 689.193 549.669 689.29 545.501 686.196C542.629 684.074 540.077 684.92 537.179 686.821C533.069 689.417 528.782 691.671 524.356 693.563C521.291 694.719 518.171 695.691 515.008 696.476C508.853 698.405 508.865 698.419 509.289 705.217C510.007 716.523 504.8 722.78 494.465 723.932C490.939 724.475 487.527 725.681 484.386 727.497C479.551 730.077 476.794 734.919 474.422 739.983C472.858 743.312 470.575 746.115 466.972 745.823C462.753 745.49 459.086 746.711 455.213 748.21C452.238 749.361 448.801 749.306 445.621 749.597C443.233 749.89 440.831 750.025 438.427 749.999C435.683 749.999 432.939 749.514 430.182 749.236V748.029C429.348 748.751 428.579 749.958 427.617 750.096C424.565 750.54 424.655 752.871 423.963 755.327C423.133 757.844 421.72 760.089 419.859 761.847C418.064 763.65 415.628 764.719 413.448 766.106H407.677C405.112 763.637 402.612 760.987 399.868 758.753C397.726 757.005 395.354 754.786 392.917 754.508C388.955 754.064 384.8 755.118 384.621 748.723C378.632 743.562 372.747 738.235 366.579 733.338C364.732 731.867 361.693 732.103 359.898 730.563C353.819 725.485 347.433 721.823 339.47 722.239C338.824 722.257 338.182 722.119 337.591 721.833C337.001 721.547 336.477 721.122 336.059 720.588C334.418 716.884 333.2 712.958 331.84 709.101C331.44 707.609 330.956 706.145 330.391 704.717C328.25 700.389 329.032 698.294 333.353 696.671C341.509 693.591 349.63 690.46 357.718 687.279C358.48 686.926 359.192 686.459 359.833 685.891C359.385 681.577 359.013 678.081 358.641 674.585C358.641 674.21 358.641 673.697 358.41 673.475C354.563 669.313 356.615 665.428 358.82 661.544C362.526 655.023 363.552 648.711 359.616 641.539C358.084 638.783 357.147 635.689 356.874 632.487C356.601 629.285 356.999 626.058 358.038 623.046C359 620.16 357.436 618.745 355.551 617.302C345.6 609.755 335.7 602.125 329.468 590.333C328.583 588.668 327.16 587.336 326.16 585.713C325.159 584.09 324.146 583.743 322.313 584.659C312.195 589.695 302.578 590.291 294.255 579.775C290.408 583.937 287.664 581.995 284.766 578.208C283.422 576.323 281.596 574.907 279.515 574.135C277.434 573.363 275.189 573.269 273.058 573.865C268.21 575.302 263.452 577.072 258.812 579.165C258.26 579.484 257.787 579.943 257.437 580.504C257.086 581.065 256.867 581.71 256.799 582.383C257.696 592.566 253.298 598.643 244.873 602.597C238.461 605.593 232.909 605.635 227.241 601.209C223.048 597.921 222.496 598.102 218.688 602.097C214.879 606.093 210.994 609.866 205.531 610.338C201.505 610.685 198.376 611.947 196.016 615.554C194.542 617.815 192.81 617.732 190.887 615.79C189.175 613.967 187.253 612.391 185.168 611.101C177.846 606.87 171.062 602.541 166.369 594.3C163.612 589.5 157.393 586.864 152.507 583.687C149.942 581.995 148.378 580.455 149.122 576.917C149.313 575.457 148.993 573.973 148.224 572.755C146.871 570.419 144.923 568.554 142.614 567.385C140.305 566.216 137.734 565.793 135.208 566.166C129.848 566.665 124.539 566.166 121.103 561.088C118.431 557.275 116.392 552.99 115.076 548.422C112.511 538.711 113.332 528.819 115.871 519.135C117.628 512.435 116.243 506.983 111.242 502.363C106.241 497.743 101.65 492.901 97.072 487.921C96.653 487.318 96.3787 486.612 96.2735 485.866C96.1683 485.121 96.2356 484.358 96.4693 483.648C100.663 476.711 105.176 469.955 109.536 463.116C113.614 456.72 117.615 450.283 121.654 443.873C122.531 442.675 122.936 441.152 122.782 439.633C122.629 438.115 121.929 436.722 120.833 435.758C118.525 433.358 115.704 431.596 113.332 429.209C111.894 427.659 110.695 425.87 109.78 423.91C108.574 421.51 107.959 418.735 106.613 416.46C105.217 414.506 103.682 412.674 102.022 410.98C100.15 408.691 100.201 406.374 101.919 403.919C103.737 401.515 105.363 398.948 106.779 396.247C108.677 392.265 111.255 389.629 115.409 388.783C118.41 388.173 119.025 386.272 117.153 383.567C115.576 381.264 113.858 379.086 112.101 376.949C109.626 373.925 107.997 370.734 108.254 366.405C108.331 365.018 106.433 363.548 105.433 362.119C104.727 361.106 103.227 359.885 103.407 359.164C104.279 355.765 105.446 352.394 109.408 351.783C111.795 351.473 114.163 351.01 116.499 350.396C121.847 348.828 123.821 343.459 120.923 338.479C119.474 335.982 119.333 333.762 121.257 331.39C126.489 324.98 126.386 318.737 120.346 313.174C115.15 308.567 109.727 304.269 104.099 300.3C101.47 298.385 99.8803 296.429 101.252 292.947C103.926 286.041 104.096 278.298 101.727 271.263C100.009 265.506 101.842 260.012 104.291 254.768C106.048 251.036 109.344 252.063 112.075 251.313C112.165 251.313 112.203 251.105 112.268 250.994C107.741 246.361 107.882 246.472 111.678 240.492C114.069 236.93 116.054 233.069 117.589 228.992C119.602 223.137 118.166 221.056 112.46 219.738C100.021 216.88 87.2622 215.715 75.157 210.984C71.6819 209.597 69.5404 207.613 68.5018 204.117C67.9338 202.144 67.7078 200.074 67.835 198.013C68.1812 192.463 67.2836 191.686 62.3722 193.462C61.0334 194.047 59.6524 194.511 58.2432 194.85C54.1141 195.585 52.0752 194.184 51.2417 189.717C50.8605 187.158 50.7102 184.565 50.7928 181.975C50.7928 179.423 50.126 178.091 47.4588 177.536C37.5849 175.51 28.1085 172.084 19.9272 165.577C17.878 163.757 15.4216 162.554 12.8056 162.089C10.1896 161.624 7.50642 161.913 5.02662 162.927C3.97511 163.482 2.12855 162.497 0.5 162.192Z" stroke="white" stroke-miterlimit="10" stroke-dasharray="12 6"/>
</svg>
