<svg width="44" height="44" viewBox="0 0 44 44" fill="none" xmlns="http://www.w3.org/2000/svg">
<path d="M21.9974 21.0837C20.7818 21.0837 19.616 20.6008 18.7565 19.7412C17.8969 18.8817 17.4141 17.7159 17.4141 16.5003C17.4141 15.2847 17.8969 14.119 18.7565 13.2594C19.616 12.3999 20.7818 11.917 21.9974 11.917C23.213 11.917 24.3788 12.3999 25.2383 13.2594C26.0978 14.119 26.5807 15.2847 26.5807 16.5003C26.5807 17.1022 26.4622 17.6982 26.2318 18.2543C26.0015 18.8104 25.6639 19.3156 25.2383 19.7412C24.8127 20.1668 24.3074 20.5044 23.7514 20.7348C23.1953 20.9651 22.5993 21.0837 21.9974 21.0837ZM21.9974 3.66699C18.5938 3.66699 15.3296 5.01907 12.9229 7.42579C10.5161 9.83251 9.16406 13.0967 9.16406 16.5003C9.16406 26.1253 21.9974 40.3337 21.9974 40.3337C21.9974 40.3337 34.8307 26.1253 34.8307 16.5003C34.8307 13.0967 33.4786 9.83251 31.0719 7.42579C28.6652 5.01907 25.401 3.66699 21.9974 3.66699Z" fill="#017AFF"/>
</svg>
